<svg width="170" height="205" viewBox="0 0 170 205" fill="none" xmlns="http://www.w3.org/2000/svg">
<rect x="0.5" y="0.5" width="169" height="204" rx="4.5" stroke="#999999" stroke-dasharray="10 5"/>
<path d="M25.216 24.32H26.496V36H25.216V24.32ZM29.4628 35.04C28.7374 34.272 28.3748 33.312 28.3748 32.16C28.3748 31.008 28.7374 30.048 29.4628 29.28C30.1988 28.512 31.1161 28.128 32.2148 28.128C33.4201 28.128 34.4548 28.6187 35.3188 29.6V28.32H36.4708V36C36.4708 37.2373 36.0654 38.1653 35.2548 38.784C34.4441 39.4027 33.4521 39.712 32.2788 39.712C31.1374 39.712 30.0974 39.472 29.1588 38.992V37.744C30.0868 38.2667 31.0734 38.528 32.1188 38.528C33.0254 38.528 33.7668 38.3253 34.3428 37.92C34.9188 37.5253 35.2014 36.8853 35.1908 36V34.816C34.4441 35.7333 33.4521 36.192 32.2148 36.192C31.1161 36.192 30.1988 35.808 29.4628 35.04ZM35.1908 31.2C34.9561 30.6667 34.5881 30.2187 34.0868 29.856C33.5854 29.4933 33.0094 29.312 32.3588 29.312C31.5908 29.312 30.9454 29.5733 30.4228 30.096C29.9108 30.6187 29.6548 31.3067 29.6548 32.16C29.6548 33.0133 29.9108 33.7013 30.4228 34.224C30.9454 34.7467 31.5908 35.008 32.3588 35.008C33.0094 35.008 33.5854 34.8427 34.0868 34.512C34.5881 34.1707 34.9561 33.76 35.1908 33.28V31.2ZM39.9763 34.736C40.1363 34.8747 40.2163 35.072 40.2163 35.328C40.2163 35.584 40.1363 35.7867 39.9763 35.936C39.8163 36.0747 39.6189 36.144 39.3843 36.144C39.1496 36.144 38.9469 36.0747 38.7763 35.936C38.6163 35.7867 38.5363 35.584 38.5363 35.328C38.5363 35.072 38.6163 34.8747 38.7763 34.736C38.9469 34.5973 39.1496 34.528 39.3843 34.528C39.6189 34.528 39.8163 34.5973 39.9763 34.736ZM42.7158 35.12C41.9051 34.3947 41.4998 33.408 41.4998 32.16C41.4998 30.912 41.9051 29.9307 42.7158 29.216C43.5264 28.4907 44.4864 28.128 45.5958 28.128C46.7158 28.128 47.6758 28.4907 48.4758 29.216C49.2864 29.9307 49.6918 30.912 49.6918 32.16C49.6918 33.408 49.2864 34.3947 48.4758 35.12C47.6758 35.8347 46.7158 36.192 45.5958 36.192C44.4864 36.192 43.5264 35.8347 42.7158 35.12ZM47.6118 34.224C48.1451 33.712 48.4118 33.024 48.4118 32.16C48.4118 31.296 48.1451 30.6133 47.6118 30.112C47.0784 29.6 46.4064 29.344 45.5958 29.344C44.7851 29.344 44.1131 29.6 43.5798 30.112C43.0464 30.6133 42.7798 31.296 42.7798 32.16C42.7798 33.024 43.0464 33.712 43.5798 34.224C44.1131 34.7253 44.7851 34.976 45.5958 34.976C46.4064 34.976 47.0784 34.7253 47.6118 34.224ZM52.2158 35.12C51.4051 34.3947 50.9998 33.408 50.9998 32.16C50.9998 30.912 51.4051 29.9307 52.2158 29.216C53.0264 28.4907 53.9864 28.128 55.0958 28.128C56.2158 28.128 57.1758 28.4907 57.9758 29.216C58.7864 29.9307 59.1918 30.912 59.1918 32.16C59.1918 33.408 58.7864 34.3947 57.9758 35.12C57.1758 35.8347 56.2158 36.192 55.0958 36.192C53.9864 36.192 53.0264 35.8347 52.2158 35.12ZM57.1118 34.224C57.6451 33.712 57.9118 33.024 57.9118 32.16C57.9118 31.296 57.6451 30.6133 57.1118 30.112C56.5784 29.6 55.9064 29.344 55.0958 29.344C54.2851 29.344 53.6131 29.6 53.0798 30.112C52.5464 30.6133 52.2798 31.296 52.2798 32.16C52.2798 33.024 52.5464 33.712 53.0798 34.224C53.6131 34.7253 54.2851 34.976 55.0958 34.976C55.9064 34.976 56.5784 34.7253 57.1118 34.224ZM62.1798 29.456C62.4571 29.0827 62.8411 28.768 63.3318 28.512C63.8331 28.256 64.3718 28.128 64.9478 28.128C65.8758 28.128 66.6384 28.4213 67.2358 29.008C67.8438 29.584 68.1478 30.336 68.1478 31.264V36H66.8678V31.424C66.8678 30.7307 66.6758 30.208 66.2918 29.856C65.9184 29.4933 65.4224 29.312 64.8038 29.312C63.8224 29.312 62.9904 29.824 62.3078 30.848V36H61.0278V28.32H62.1798V29.456ZM76.6584 34.4C76.6584 34.7947 76.8557 34.992 77.2504 34.992C77.421 34.992 77.6184 34.9547 77.8424 34.88V35.92C77.5224 36.0373 77.2024 36.096 76.8824 36.096C76.1464 36.096 75.677 35.7867 75.4744 35.168C74.653 35.8507 73.6557 36.192 72.4824 36.192C71.7357 36.192 71.0957 35.9947 70.5624 35.6C70.0397 35.1947 69.7784 34.6133 69.7784 33.856C69.7784 32.9493 70.1144 32.2933 70.7864 31.888C71.469 31.472 72.2904 31.264 73.2504 31.264C73.9544 31.264 74.6637 31.344 75.3784 31.504V31.232C75.3784 30.6453 75.1864 30.1813 74.8024 29.84C74.4184 29.488 73.8797 29.312 73.1864 29.312C72.2157 29.312 71.2824 29.504 70.3864 29.888V28.64C71.389 28.2987 72.365 28.128 73.3144 28.128C74.3597 28.128 75.1757 28.4107 75.7624 28.976C76.3597 29.5307 76.6584 30.336 76.6584 31.392V34.4ZM71.0904 33.792C71.0904 34.2187 71.2504 34.544 71.5704 34.768C71.901 34.9813 72.2957 35.088 72.7544 35.088C73.8104 35.088 74.685 34.7147 75.3784 33.968V32.56C74.653 32.4107 74.0024 32.336 73.4264 32.336C72.7757 32.336 72.221 32.4533 71.7624 32.688C71.3144 32.912 71.0904 33.28 71.0904 33.792ZM78.6415 32.16C78.6415 31.1787 78.8175 30.24 79.1695 29.344C79.5215 28.448 80.0228 27.648 80.6735 26.944C81.3242 26.2293 82.1508 25.664 83.1535 25.248C84.1562 24.8213 85.2655 24.608 86.4815 24.608C87.4415 24.608 88.3375 24.752 89.1695 25.04C90.0015 25.3173 90.7055 25.6907 91.2815 26.16C91.8575 26.6293 92.3535 27.168 92.7695 27.776C93.1855 28.3733 93.4895 28.992 93.6815 29.632C93.8842 30.272 93.9855 30.9067 93.9855 31.536C93.9855 32.9547 93.6975 34.032 93.1215 34.768C92.5562 35.504 91.7935 35.872 90.8335 35.872C90.2148 35.872 89.6868 35.7333 89.2495 35.456C88.8122 35.168 88.5082 34.7573 88.3375 34.224C87.8148 35.0987 87.0095 35.536 85.9215 35.536C85.0148 35.536 84.2628 35.2213 83.6655 34.592C83.0788 33.952 82.7855 33.1573 82.7855 32.208C82.7855 31.248 83.0788 30.448 83.6655 29.808C84.2628 29.168 85.0148 28.848 85.9215 28.848C86.4228 28.848 86.8762 28.9653 87.2815 29.2C87.6868 29.424 87.9908 29.7013 88.1935 30.032V29.008H89.4415V33.2C89.4415 34.2347 89.9108 34.752 90.8495 34.752C91.4468 34.752 91.8948 34.4587 92.1935 33.872C92.4922 33.2853 92.6415 32.5067 92.6415 31.536C92.6415 30.864 92.5082 30.2027 92.2415 29.552C91.9748 28.8907 91.5908 28.288 91.0895 27.744C90.5882 27.1893 89.9375 26.7413 89.1375 26.4C88.3375 26.0587 87.4522 25.888 86.4815 25.888C85.1482 25.888 83.9802 26.1867 82.9775 26.784C81.9748 27.3707 81.2228 28.1333 80.7215 29.072C80.2308 30.0107 79.9855 31.04 79.9855 32.16C79.9855 33.4613 80.3002 34.5973 80.9295 35.568C81.5695 36.528 82.4068 37.2427 83.4415 37.712C84.4868 38.192 85.6548 38.432 86.9455 38.432C88.2042 38.432 89.3775 38.24 90.4655 37.856V39.136C89.3882 39.52 88.2042 39.712 86.9135 39.712C85.8042 39.712 84.7535 39.5467 83.7615 39.216C82.7802 38.8853 81.9055 38.4107 81.1375 37.792C80.3695 37.1733 79.7615 36.3787 79.3135 35.408C78.8655 34.4373 78.6415 33.3547 78.6415 32.16ZM88.1935 31.616C88.0762 31.1787 87.8308 30.8053 87.4575 30.496C87.0842 30.1867 86.6255 30.032 86.0815 30.032C85.5162 30.032 85.0362 30.2347 84.6415 30.64C84.2575 31.0347 84.0655 31.552 84.0655 32.192C84.0655 32.832 84.2575 33.3547 84.6415 33.76C85.0362 34.1547 85.5162 34.352 86.0815 34.352C86.6255 34.352 87.0842 34.1973 87.4575 33.888C87.8308 33.5787 88.0762 33.2053 88.1935 32.768V31.616ZM97.214 36H95.934V28.32H97.086V29.344C97.8433 28.5333 98.718 28.128 99.71 28.128C100.851 28.128 101.673 28.56 102.174 29.424C103.017 28.56 103.95 28.128 104.974 28.128C105.902 28.128 106.622 28.4213 107.134 29.008C107.646 29.584 107.902 30.336 107.902 31.264V36H106.622V31.232C106.622 30.6453 106.462 30.1813 106.142 29.84C105.822 29.488 105.385 29.312 104.83 29.312C104.009 29.312 103.262 29.7333 102.59 30.576C102.622 30.8 102.638 31.0293 102.638 31.264V36H101.358V31.232C101.358 30.6453 101.198 30.1813 100.878 29.84C100.558 29.488 100.121 29.312 99.566 29.312C98.7127 29.312 97.9287 29.776 97.214 30.704V36ZM116.408 34.4C116.408 34.7947 116.606 34.992 117 34.992C117.171 34.992 117.368 34.9547 117.592 34.88V35.92C117.272 36.0373 116.952 36.096 116.632 36.096C115.896 36.096 115.427 35.7867 115.224 35.168C114.403 35.8507 113.406 36.192 112.232 36.192C111.486 36.192 110.846 35.9947 110.312 35.6C109.79 35.1947 109.528 34.6133 109.528 33.856C109.528 32.9493 109.864 32.2933 110.536 31.888C111.219 31.472 112.04 31.264 113 31.264C113.704 31.264 114.414 31.344 115.128 31.504V31.232C115.128 30.6453 114.936 30.1813 114.552 29.84C114.168 29.488 113.63 29.312 112.936 29.312C111.966 29.312 111.032 29.504 110.136 29.888V28.64C111.139 28.2987 112.115 28.128 113.064 28.128C114.11 28.128 114.926 28.4107 115.512 28.976C116.11 29.5307 116.408 30.336 116.408 31.392V34.4ZM110.84 33.792C110.84 34.2187 111 34.544 111.32 34.768C111.651 34.9813 112.046 35.088 112.504 35.088C113.56 35.088 114.435 34.7147 115.128 33.968V32.56C114.403 32.4107 113.752 32.336 113.176 32.336C112.526 32.336 111.971 32.4533 111.512 32.688C111.064 32.912 110.84 33.28 110.84 33.792ZM120.184 36H118.904V28.32H120.184V36ZM120.136 25.28C120.296 25.4187 120.376 25.616 120.376 25.872C120.376 26.128 120.296 26.3307 120.136 26.48C119.976 26.6187 119.778 26.688 119.544 26.688C119.309 26.688 119.112 26.6187 118.952 26.48C118.792 26.3307 118.712 26.128 118.712 25.872C118.712 25.616 118.792 25.4187 118.952 25.28C119.112 25.1307 119.309 25.056 119.544 25.056C119.778 25.056 119.976 25.1307 120.136 25.28ZM122.622 24.32H123.902V36H122.622V24.32ZM127.445 34.736C127.605 34.8747 127.685 35.072 127.685 35.328C127.685 35.584 127.605 35.7867 127.445 35.936C127.285 36.0747 127.088 36.144 126.853 36.144C126.618 36.144 126.416 36.0747 126.245 35.936C126.085 35.7867 126.005 35.584 126.005 35.328C126.005 35.072 126.085 34.8747 126.245 34.736C126.416 34.5973 126.618 34.528 126.853 34.528C127.088 34.528 127.285 34.5973 127.445 34.736ZM130.899 29.68C131.197 29.1787 131.656 28.7893 132.275 28.512C132.893 28.224 133.539 28.1067 134.211 28.16V29.44C133.464 29.3547 132.803 29.4773 132.227 29.808C131.661 30.128 131.261 30.5973 131.027 31.216V36H129.747V28.32H130.899V29.68ZM141.35 28.32H142.63V36H141.478V34.864C141.201 35.2373 140.811 35.552 140.31 35.808C139.819 36.064 139.286 36.192 138.71 36.192C137.718 36.192 136.934 35.9093 136.358 35.344C135.793 34.768 135.51 34.0053 135.51 33.056V28.32H136.79V32.896C136.79 34.304 137.478 35.008 138.854 35.008C139.835 35.008 140.667 34.496 141.35 33.472V28.32Z" fill="#CC9933"/>
<path d="M25.216 71.32H26.496V83H25.216V71.32ZM29.4628 82.04C28.7374 81.272 28.3748 80.312 28.3748 79.16C28.3748 78.008 28.7374 77.048 29.4628 76.28C30.1988 75.512 31.1161 75.128 32.2148 75.128C33.4201 75.128 34.4548 75.6187 35.3188 76.6V75.32H36.4708V83C36.4708 84.2373 36.0654 85.1653 35.2548 85.784C34.4441 86.4027 33.4521 86.712 32.2788 86.712C31.1374 86.712 30.0974 86.472 29.1588 85.992V84.744C30.0868 85.2667 31.0734 85.528 32.1188 85.528C33.0254 85.528 33.7668 85.3253 34.3428 84.92C34.9188 84.5253 35.2014 83.8853 35.1908 83V81.816C34.4441 82.7333 33.4521 83.192 32.2148 83.192C31.1161 83.192 30.1988 82.808 29.4628 82.04ZM35.1908 78.2C34.9561 77.6667 34.5881 77.2187 34.0868 76.856C33.5854 76.4933 33.0094 76.312 32.3588 76.312C31.5908 76.312 30.9454 76.5733 30.4228 77.096C29.9108 77.6187 29.6548 78.3067 29.6548 79.16C29.6548 80.0133 29.9108 80.7013 30.4228 81.224C30.9454 81.7467 31.5908 82.008 32.3588 82.008C33.0094 82.008 33.5854 81.8427 34.0868 81.512C34.5881 81.1707 34.9561 80.76 35.1908 80.28V78.2ZM39.9763 81.736C40.1363 81.8747 40.2163 82.072 40.2163 82.328C40.2163 82.584 40.1363 82.7867 39.9763 82.936C39.8163 83.0747 39.6189 83.144 39.3843 83.144C39.1496 83.144 38.9469 83.0747 38.7763 82.936C38.6163 82.7867 38.5363 82.584 38.5363 82.328C38.5363 82.072 38.6163 81.8747 38.7763 81.736C38.9469 81.5973 39.1496 81.528 39.3843 81.528C39.6189 81.528 39.8163 81.5973 39.9763 81.736ZM42.7158 82.12C41.9051 81.3947 41.4998 80.408 41.4998 79.16C41.4998 77.912 41.9051 76.9307 42.7158 76.216C43.5264 75.4907 44.4864 75.128 45.5958 75.128C46.7158 75.128 47.6758 75.4907 48.4758 76.216C49.2864 76.9307 49.6918 77.912 49.6918 79.16C49.6918 80.408 49.2864 81.3947 48.4758 82.12C47.6758 82.8347 46.7158 83.192 45.5958 83.192C44.4864 83.192 43.5264 82.8347 42.7158 82.12ZM47.6118 81.224C48.1451 80.712 48.4118 80.024 48.4118 79.16C48.4118 78.296 48.1451 77.6133 47.6118 77.112C47.0784 76.6 46.4064 76.344 45.5958 76.344C44.7851 76.344 44.1131 76.6 43.5798 77.112C43.0464 77.6133 42.7798 78.296 42.7798 79.16C42.7798 80.024 43.0464 80.712 43.5798 81.224C44.1131 81.7253 44.7851 81.976 45.5958 81.976C46.4064 81.976 47.0784 81.7253 47.6118 81.224ZM52.2158 82.12C51.4051 81.3947 50.9998 80.408 50.9998 79.16C50.9998 77.912 51.4051 76.9307 52.2158 76.216C53.0264 75.4907 53.9864 75.128 55.0958 75.128C56.2158 75.128 57.1758 75.4907 57.9758 76.216C58.7864 76.9307 59.1918 77.912 59.1918 79.16C59.1918 80.408 58.7864 81.3947 57.9758 82.12C57.1758 82.8347 56.2158 83.192 55.0958 83.192C53.9864 83.192 53.0264 82.8347 52.2158 82.12ZM57.1118 81.224C57.6451 80.712 57.9118 80.024 57.9118 79.16C57.9118 78.296 57.6451 77.6133 57.1118 77.112C56.5784 76.6 55.9064 76.344 55.0958 76.344C54.2851 76.344 53.6131 76.6 53.0798 77.112C52.5464 77.6133 52.2798 78.296 52.2798 79.16C52.2798 80.024 52.5464 80.712 53.0798 81.224C53.6131 81.7253 54.2851 81.976 55.0958 81.976C55.9064 81.976 56.5784 81.7253 57.1118 81.224ZM62.1798 76.456C62.4571 76.0827 62.8411 75.768 63.3318 75.512C63.8331 75.256 64.3718 75.128 64.9478 75.128C65.8758 75.128 66.6384 75.4213 67.2358 76.008C67.8438 76.584 68.1478 77.336 68.1478 78.264V83H66.8678V78.424C66.8678 77.7307 66.6758 77.208 66.2918 76.856C65.9184 76.4933 65.4224 76.312 64.8038 76.312C63.8224 76.312 62.9904 76.824 62.3078 77.848V83H61.0278V75.32H62.1798V76.456ZM76.6584 81.4C76.6584 81.7947 76.8557 81.992 77.2504 81.992C77.421 81.992 77.6184 81.9547 77.8424 81.88V82.92C77.5224 83.0373 77.2024 83.096 76.8824 83.096C76.1464 83.096 75.677 82.7867 75.4744 82.168C74.653 82.8507 73.6557 83.192 72.4824 83.192C71.7357 83.192 71.0957 82.9947 70.5624 82.6C70.0397 82.1947 69.7784 81.6133 69.7784 80.856C69.7784 79.9493 70.1144 79.2933 70.7864 78.888C71.469 78.472 72.2904 78.264 73.2504 78.264C73.9544 78.264 74.6637 78.344 75.3784 78.504V78.232C75.3784 77.6453 75.1864 77.1813 74.8024 76.84C74.4184 76.488 73.8797 76.312 73.1864 76.312C72.2157 76.312 71.2824 76.504 70.3864 76.888V75.64C71.389 75.2987 72.365 75.128 73.3144 75.128C74.3597 75.128 75.1757 75.4107 75.7624 75.976C76.3597 76.5307 76.6584 77.336 76.6584 78.392V81.4ZM71.0904 80.792C71.0904 81.2187 71.2504 81.544 71.5704 81.768C71.901 81.9813 72.2957 82.088 72.7544 82.088C73.8104 82.088 74.685 81.7147 75.3784 80.968V79.56C74.653 79.4107 74.0024 79.336 73.4264 79.336C72.7757 79.336 72.221 79.4533 71.7624 79.688C71.3144 79.912 71.0904 80.28 71.0904 80.792ZM78.6415 79.16C78.6415 78.1787 78.8175 77.24 79.1695 76.344C79.5215 75.448 80.0228 74.648 80.6735 73.944C81.3242 73.2293 82.1508 72.664 83.1535 72.248C84.1562 71.8213 85.2655 71.608 86.4815 71.608C87.4415 71.608 88.3375 71.752 89.1695 72.04C90.0015 72.3173 90.7055 72.6907 91.2815 73.16C91.8575 73.6293 92.3535 74.168 92.7695 74.776C93.1855 75.3733 93.4895 75.992 93.6815 76.632C93.8842 77.272 93.9855 77.9067 93.9855 78.536C93.9855 79.9547 93.6975 81.032 93.1215 81.768C92.5562 82.504 91.7935 82.872 90.8335 82.872C90.2148 82.872 89.6868 82.7333 89.2495 82.456C88.8122 82.168 88.5082 81.7573 88.3375 81.224C87.8148 82.0987 87.0095 82.536 85.9215 82.536C85.0148 82.536 84.2628 82.2213 83.6655 81.592C83.0788 80.952 82.7855 80.1573 82.7855 79.208C82.7855 78.248 83.0788 77.448 83.6655 76.808C84.2628 76.168 85.0148 75.848 85.9215 75.848C86.4228 75.848 86.8762 75.9653 87.2815 76.2C87.6868 76.424 87.9908 76.7013 88.1935 77.032V76.008H89.4415V80.2C89.4415 81.2347 89.9108 81.752 90.8495 81.752C91.4468 81.752 91.8948 81.4587 92.1935 80.872C92.4922 80.2853 92.6415 79.5067 92.6415 78.536C92.6415 77.864 92.5082 77.2027 92.2415 76.552C91.9748 75.8907 91.5908 75.288 91.0895 74.744C90.5882 74.1893 89.9375 73.7413 89.1375 73.4C88.3375 73.0587 87.4522 72.888 86.4815 72.888C85.1482 72.888 83.9802 73.1867 82.9775 73.784C81.9748 74.3707 81.2228 75.1333 80.7215 76.072C80.2308 77.0107 79.9855 78.04 79.9855 79.16C79.9855 80.4613 80.3002 81.5973 80.9295 82.568C81.5695 83.528 82.4068 84.2427 83.4415 84.712C84.4868 85.192 85.6548 85.432 86.9455 85.432C88.2042 85.432 89.3775 85.24 90.4655 84.856V86.136C89.3882 86.52 88.2042 86.712 86.9135 86.712C85.8042 86.712 84.7535 86.5467 83.7615 86.216C82.7802 85.8853 81.9055 85.4107 81.1375 84.792C80.3695 84.1733 79.7615 83.3787 79.3135 82.408C78.8655 81.4373 78.6415 80.3547 78.6415 79.16ZM88.1935 78.616C88.0762 78.1787 87.8308 77.8053 87.4575 77.496C87.0842 77.1867 86.6255 77.032 86.0815 77.032C85.5162 77.032 85.0362 77.2347 84.6415 77.64C84.2575 78.0347 84.0655 78.552 84.0655 79.192C84.0655 79.832 84.2575 80.3547 84.6415 80.76C85.0362 81.1547 85.5162 81.352 86.0815 81.352C86.6255 81.352 87.0842 81.1973 87.4575 80.888C87.8308 80.5787 88.0762 80.2053 88.1935 79.768V78.616ZM97.214 83H95.934V75.32H97.086V76.344C97.8433 75.5333 98.718 75.128 99.71 75.128C100.851 75.128 101.673 75.56 102.174 76.424C103.017 75.56 103.95 75.128 104.974 75.128C105.902 75.128 106.622 75.4213 107.134 76.008C107.646 76.584 107.902 77.336 107.902 78.264V83H106.622V78.232C106.622 77.6453 106.462 77.1813 106.142 76.84C105.822 76.488 105.385 76.312 104.83 76.312C104.009 76.312 103.262 76.7333 102.59 77.576C102.622 77.8 102.638 78.0293 102.638 78.264V83H101.358V78.232C101.358 77.6453 101.198 77.1813 100.878 76.84C100.558 76.488 100.121 76.312 99.566 76.312C98.7127 76.312 97.9287 76.776 97.214 77.704V83ZM116.408 81.4C116.408 81.7947 116.606 81.992 117 81.992C117.171 81.992 117.368 81.9547 117.592 81.88V82.92C117.272 83.0373 116.952 83.096 116.632 83.096C115.896 83.096 115.427 82.7867 115.224 82.168C114.403 82.8507 113.406 83.192 112.232 83.192C111.486 83.192 110.846 82.9947 110.312 82.6C109.79 82.1947 109.528 81.6133 109.528 80.856C109.528 79.9493 109.864 79.2933 110.536 78.888C111.219 78.472 112.04 78.264 113 78.264C113.704 78.264 114.414 78.344 115.128 78.504V78.232C115.128 77.6453 114.936 77.1813 114.552 76.84C114.168 76.488 113.63 76.312 112.936 76.312C111.966 76.312 111.032 76.504 110.136 76.888V75.64C111.139 75.2987 112.115 75.128 113.064 75.128C114.11 75.128 114.926 75.4107 115.512 75.976C116.11 76.5307 116.408 77.336 116.408 78.392V81.4ZM110.84 80.792C110.84 81.2187 111 81.544 111.32 81.768C111.651 81.9813 112.046 82.088 112.504 82.088C113.56 82.088 114.435 81.7147 115.128 80.968V79.56C114.403 79.4107 113.752 79.336 113.176 79.336C112.526 79.336 111.971 79.4533 111.512 79.688C111.064 79.912 110.84 80.28 110.84 80.792ZM120.184 83H118.904V75.32H120.184V83ZM120.136 72.28C120.296 72.4187 120.376 72.616 120.376 72.872C120.376 73.128 120.296 73.3307 120.136 73.48C119.976 73.6187 119.778 73.688 119.544 73.688C119.309 73.688 119.112 73.6187 118.952 73.48C118.792 73.3307 118.712 73.128 118.712 72.872C118.712 72.616 118.792 72.4187 118.952 72.28C119.112 72.1307 119.309 72.056 119.544 72.056C119.778 72.056 119.976 72.1307 120.136 72.28ZM122.622 71.32H123.902V83H122.622V71.32ZM127.445 81.736C127.605 81.8747 127.685 82.072 127.685 82.328C127.685 82.584 127.605 82.7867 127.445 82.936C127.285 83.0747 127.088 83.144 126.853 83.144C126.618 83.144 126.416 83.0747 126.245 82.936C126.085 82.7867 126.005 82.584 126.005 82.328C126.005 82.072 126.085 81.8747 126.245 81.736C126.416 81.5973 126.618 81.528 126.853 81.528C127.088 81.528 127.285 81.5973 127.445 81.736ZM130.899 76.68C131.197 76.1787 131.656 75.7893 132.275 75.512C132.893 75.224 133.539 75.1067 134.211 75.16V76.44C133.464 76.3547 132.803 76.4773 132.227 76.808C131.661 77.128 131.261 77.5973 131.027 78.216V83H129.747V75.32H130.899V76.68ZM141.35 75.32H142.63V83H141.478V81.864C141.201 82.2373 140.811 82.552 140.31 82.808C139.819 83.064 139.286 83.192 138.71 83.192C137.718 83.192 136.934 82.9093 136.358 82.344C135.793 81.768 135.51 81.0053 135.51 80.056V75.32H136.79V79.896C136.79 81.304 137.478 82.008 138.854 82.008C139.835 82.008 140.667 81.496 141.35 80.472V75.32Z" fill="#F0BF5F"/>
<rect x="20.5" y="109.5" width="129" height="33" stroke="#CC9933"/>
<path d="M26.216 118.32H27.496V130H26.216V118.32ZM30.4628 129.04C29.7374 128.272 29.3748 127.312 29.3748 126.16C29.3748 125.008 29.7374 124.048 30.4628 123.28C31.1988 122.512 32.1161 122.128 33.2148 122.128C34.4201 122.128 35.4548 122.619 36.3188 123.6V122.32H37.4708V130C37.4708 131.237 37.0654 132.165 36.2548 132.784C35.4441 133.403 34.4521 133.712 33.2788 133.712C32.1374 133.712 31.0974 133.472 30.1588 132.992V131.744C31.0868 132.267 32.0734 132.528 33.1188 132.528C34.0254 132.528 34.7668 132.325 35.3428 131.92C35.9188 131.525 36.2014 130.885 36.1908 130V128.816C35.4441 129.733 34.4521 130.192 33.2148 130.192C32.1161 130.192 31.1988 129.808 30.4628 129.04ZM36.1908 125.2C35.9561 124.667 35.5881 124.219 35.0868 123.856C34.5854 123.493 34.0094 123.312 33.3588 123.312C32.5908 123.312 31.9454 123.573 31.4228 124.096C30.9108 124.619 30.6548 125.307 30.6548 126.16C30.6548 127.013 30.9108 127.701 31.4228 128.224C31.9454 128.747 32.5908 129.008 33.3588 129.008C34.0094 129.008 34.5854 128.843 35.0868 128.512C35.5881 128.171 35.9561 127.76 36.1908 127.28V125.2ZM40.9763 128.736C41.1363 128.875 41.2163 129.072 41.2163 129.328C41.2163 129.584 41.1363 129.787 40.9763 129.936C40.8163 130.075 40.6189 130.144 40.3843 130.144C40.1496 130.144 39.9469 130.075 39.7763 129.936C39.6163 129.787 39.5363 129.584 39.5363 129.328C39.5363 129.072 39.6163 128.875 39.7763 128.736C39.9469 128.597 40.1496 128.528 40.3843 128.528C40.6189 128.528 40.8163 128.597 40.9763 128.736ZM43.7158 129.12C42.9051 128.395 42.4998 127.408 42.4998 126.16C42.4998 124.912 42.9051 123.931 43.7158 123.216C44.5264 122.491 45.4864 122.128 46.5958 122.128C47.7158 122.128 48.6758 122.491 49.4758 123.216C50.2864 123.931 50.6918 124.912 50.6918 126.16C50.6918 127.408 50.2864 128.395 49.4758 129.12C48.6758 129.835 47.7158 130.192 46.5958 130.192C45.4864 130.192 44.5264 129.835 43.7158 129.12ZM48.6118 128.224C49.1451 127.712 49.4118 127.024 49.4118 126.16C49.4118 125.296 49.1451 124.613 48.6118 124.112C48.0784 123.6 47.4064 123.344 46.5958 123.344C45.7851 123.344 45.1131 123.6 44.5798 124.112C44.0464 124.613 43.7798 125.296 43.7798 126.16C43.7798 127.024 44.0464 127.712 44.5798 128.224C45.1131 128.725 45.7851 128.976 46.5958 128.976C47.4064 128.976 48.0784 128.725 48.6118 128.224ZM53.2158 129.12C52.4051 128.395 51.9998 127.408 51.9998 126.16C51.9998 124.912 52.4051 123.931 53.2158 123.216C54.0264 122.491 54.9864 122.128 56.0958 122.128C57.2158 122.128 58.1758 122.491 58.9758 123.216C59.7864 123.931 60.1918 124.912 60.1918 126.16C60.1918 127.408 59.7864 128.395 58.9758 129.12C58.1758 129.835 57.2158 130.192 56.0958 130.192C54.9864 130.192 54.0264 129.835 53.2158 129.12ZM58.1118 128.224C58.6451 127.712 58.9118 127.024 58.9118 126.16C58.9118 125.296 58.6451 124.613 58.1118 124.112C57.5784 123.6 56.9064 123.344 56.0958 123.344C55.2851 123.344 54.6131 123.6 54.0798 124.112C53.5464 124.613 53.2798 125.296 53.2798 126.16C53.2798 127.024 53.5464 127.712 54.0798 128.224C54.6131 128.725 55.2851 128.976 56.0958 128.976C56.9064 128.976 57.5784 128.725 58.1118 128.224ZM63.1798 123.456C63.4571 123.083 63.8411 122.768 64.3318 122.512C64.8331 122.256 65.3718 122.128 65.9478 122.128C66.8758 122.128 67.6384 122.421 68.2358 123.008C68.8438 123.584 69.1478 124.336 69.1478 125.264V130H67.8678V125.424C67.8678 124.731 67.6758 124.208 67.2918 123.856C66.9184 123.493 66.4224 123.312 65.8038 123.312C64.8224 123.312 63.9904 123.824 63.3078 124.848V130H62.0278V122.32H63.1798V123.456ZM77.6584 128.4C77.6584 128.795 77.8557 128.992 78.2504 128.992C78.421 128.992 78.6184 128.955 78.8424 128.88V129.92C78.5224 130.037 78.2024 130.096 77.8824 130.096C77.1464 130.096 76.677 129.787 76.4744 129.168C75.653 129.851 74.6557 130.192 73.4824 130.192C72.7357 130.192 72.0957 129.995 71.5624 129.6C71.0397 129.195 70.7784 128.613 70.7784 127.856C70.7784 126.949 71.1144 126.293 71.7864 125.888C72.469 125.472 73.2904 125.264 74.2504 125.264C74.9544 125.264 75.6637 125.344 76.3784 125.504V125.232C76.3784 124.645 76.1864 124.181 75.8024 123.84C75.4184 123.488 74.8797 123.312 74.1864 123.312C73.2157 123.312 72.2824 123.504 71.3864 123.888V122.64C72.389 122.299 73.365 122.128 74.3144 122.128C75.3597 122.128 76.1757 122.411 76.7624 122.976C77.3597 123.531 77.6584 124.336 77.6584 125.392V128.4ZM72.0904 127.792C72.0904 128.219 72.2504 128.544 72.5704 128.768C72.901 128.981 73.2957 129.088 73.7544 129.088C74.8104 129.088 75.685 128.715 76.3784 127.968V126.56C75.653 126.411 75.0024 126.336 74.4264 126.336C73.7757 126.336 73.221 126.453 72.7624 126.688C72.3144 126.912 72.0904 127.28 72.0904 127.792ZM79.6415 126.16C79.6415 125.179 79.8175 124.24 80.1695 123.344C80.5215 122.448 81.0228 121.648 81.6735 120.944C82.3242 120.229 83.1508 119.664 84.1535 119.248C85.1562 118.821 86.2655 118.608 87.4815 118.608C88.4415 118.608 89.3375 118.752 90.1695 119.04C91.0015 119.317 91.7055 119.691 92.2815 120.16C92.8575 120.629 93.3535 121.168 93.7695 121.776C94.1855 122.373 94.4895 122.992 94.6815 123.632C94.8842 124.272 94.9855 124.907 94.9855 125.536C94.9855 126.955 94.6975 128.032 94.1215 128.768C93.5562 129.504 92.7935 129.872 91.8335 129.872C91.2148 129.872 90.6868 129.733 90.2495 129.456C89.8122 129.168 89.5082 128.757 89.3375 128.224C88.8148 129.099 88.0095 129.536 86.9215 129.536C86.0148 129.536 85.2628 129.221 84.6655 128.592C84.0788 127.952 83.7855 127.157 83.7855 126.208C83.7855 125.248 84.0788 124.448 84.6655 123.808C85.2628 123.168 86.0148 122.848 86.9215 122.848C87.4228 122.848 87.8762 122.965 88.2815 123.2C88.6868 123.424 88.9908 123.701 89.1935 124.032V123.008H90.4415V127.2C90.4415 128.235 90.9108 128.752 91.8495 128.752C92.4468 128.752 92.8948 128.459 93.1935 127.872C93.4922 127.285 93.6415 126.507 93.6415 125.536C93.6415 124.864 93.5082 124.203 93.2415 123.552C92.9748 122.891 92.5908 122.288 92.0895 121.744C91.5882 121.189 90.9375 120.741 90.1375 120.4C89.3375 120.059 88.4522 119.888 87.4815 119.888C86.1482 119.888 84.9802 120.187 83.9775 120.784C82.9748 121.371 82.2228 122.133 81.7215 123.072C81.2308 124.011 80.9855 125.04 80.9855 126.16C80.9855 127.461 81.3002 128.597 81.9295 129.568C82.5695 130.528 83.4068 131.243 84.4415 131.712C85.4868 132.192 86.6548 132.432 87.9455 132.432C89.2042 132.432 90.3775 132.24 91.4655 131.856V133.136C90.3882 133.52 89.2042 133.712 87.9135 133.712C86.8042 133.712 85.7535 133.547 84.7615 133.216C83.7802 132.885 82.9055 132.411 82.1375 131.792C81.3695 131.173 80.7615 130.379 80.3135 129.408C79.8655 128.437 79.6415 127.355 79.6415 126.16ZM89.1935 125.616C89.0762 125.179 88.8308 124.805 88.4575 124.496C88.0842 124.187 87.6255 124.032 87.0815 124.032C86.5162 124.032 86.0362 124.235 85.6415 124.64C85.2575 125.035 85.0655 125.552 85.0655 126.192C85.0655 126.832 85.2575 127.355 85.6415 127.76C86.0362 128.155 86.5162 128.352 87.0815 128.352C87.6255 128.352 88.0842 128.197 88.4575 127.888C88.8308 127.579 89.0762 127.205 89.1935 126.768V125.616ZM98.214 130H96.934V122.32H98.086V123.344C98.8433 122.533 99.718 122.128 100.71 122.128C101.851 122.128 102.673 122.56 103.174 123.424C104.017 122.56 104.95 122.128 105.974 122.128C106.902 122.128 107.622 122.421 108.134 123.008C108.646 123.584 108.902 124.336 108.902 125.264V130H107.622V125.232C107.622 124.645 107.462 124.181 107.142 123.84C106.822 123.488 106.385 123.312 105.83 123.312C105.009 123.312 104.262 123.733 103.59 124.576C103.622 124.8 103.638 125.029 103.638 125.264V130H102.358V125.232C102.358 124.645 102.198 124.181 101.878 123.84C101.558 123.488 101.121 123.312 100.566 123.312C99.7127 123.312 98.9287 123.776 98.214 124.704V130ZM117.408 128.4C117.408 128.795 117.606 128.992 118 128.992C118.171 128.992 118.368 128.955 118.592 128.88V129.92C118.272 130.037 117.952 130.096 117.632 130.096C116.896 130.096 116.427 129.787 116.224 129.168C115.403 129.851 114.406 130.192 113.232 130.192C112.486 130.192 111.846 129.995 111.312 129.6C110.79 129.195 110.528 128.613 110.528 127.856C110.528 126.949 110.864 126.293 111.536 125.888C112.219 125.472 113.04 125.264 114 125.264C114.704 125.264 115.414 125.344 116.128 125.504V125.232C116.128 124.645 115.936 124.181 115.552 123.84C115.168 123.488 114.63 123.312 113.936 123.312C112.966 123.312 112.032 123.504 111.136 123.888V122.64C112.139 122.299 113.115 122.128 114.064 122.128C115.11 122.128 115.926 122.411 116.512 122.976C117.11 123.531 117.408 124.336 117.408 125.392V128.4ZM111.84 127.792C111.84 128.219 112 128.544 112.32 128.768C112.651 128.981 113.046 129.088 113.504 129.088C114.56 129.088 115.435 128.715 116.128 127.968V126.56C115.403 126.411 114.752 126.336 114.176 126.336C113.526 126.336 112.971 126.453 112.512 126.688C112.064 126.912 111.84 127.28 111.84 127.792ZM121.184 130H119.904V122.32H121.184V130ZM121.136 119.28C121.296 119.419 121.376 119.616 121.376 119.872C121.376 120.128 121.296 120.331 121.136 120.48C120.976 120.619 120.778 120.688 120.544 120.688C120.309 120.688 120.112 120.619 119.952 120.48C119.792 120.331 119.712 120.128 119.712 119.872C119.712 119.616 119.792 119.419 119.952 119.28C120.112 119.131 120.309 119.056 120.544 119.056C120.778 119.056 120.976 119.131 121.136 119.28ZM123.622 118.32H124.902V130H123.622V118.32ZM128.445 128.736C128.605 128.875 128.685 129.072 128.685 129.328C128.685 129.584 128.605 129.787 128.445 129.936C128.285 130.075 128.088 130.144 127.853 130.144C127.618 130.144 127.416 130.075 127.245 129.936C127.085 129.787 127.005 129.584 127.005 129.328C127.005 129.072 127.085 128.875 127.245 128.736C127.416 128.597 127.618 128.528 127.853 128.528C128.088 128.528 128.285 128.597 128.445 128.736ZM131.899 123.68C132.197 123.179 132.656 122.789 133.275 122.512C133.893 122.224 134.539 122.107 135.211 122.16V123.44C134.464 123.355 133.803 123.477 133.227 123.808C132.661 124.128 132.261 124.597 132.027 125.216V130H130.747V122.32H131.899V123.68ZM142.35 122.32H143.63V130H142.478V128.864C142.201 129.237 141.811 129.552 141.31 129.808C140.819 130.064 140.286 130.192 139.71 130.192C138.718 130.192 137.934 129.909 137.358 129.344C136.793 128.768 136.51 128.005 136.51 127.056V122.32H137.79V126.896C137.79 128.304 138.478 129.008 139.854 129.008C140.835 129.008 141.667 128.496 142.35 127.472V122.32Z" fill="#CC9933"/>
<path d="M25.216 165.32H26.496V177H25.216V165.32ZM29.4628 176.04C28.7374 175.272 28.3748 174.312 28.3748 173.16C28.3748 172.008 28.7374 171.048 29.4628 170.28C30.1988 169.512 31.1161 169.128 32.2148 169.128C33.4201 169.128 34.4548 169.619 35.3188 170.6V169.32H36.4708V177C36.4708 178.237 36.0654 179.165 35.2548 179.784C34.4441 180.403 33.4521 180.712 32.2788 180.712C31.1374 180.712 30.0974 180.472 29.1588 179.992V178.744C30.0868 179.267 31.0734 179.528 32.1188 179.528C33.0254 179.528 33.7668 179.325 34.3428 178.92C34.9188 178.525 35.2014 177.885 35.1908 177V175.816C34.4441 176.733 33.4521 177.192 32.2148 177.192C31.1161 177.192 30.1988 176.808 29.4628 176.04ZM35.1908 172.2C34.9561 171.667 34.5881 171.219 34.0868 170.856C33.5854 170.493 33.0094 170.312 32.3588 170.312C31.5908 170.312 30.9454 170.573 30.4228 171.096C29.9108 171.619 29.6548 172.307 29.6548 173.16C29.6548 174.013 29.9108 174.701 30.4228 175.224C30.9454 175.747 31.5908 176.008 32.3588 176.008C33.0094 176.008 33.5854 175.843 34.0868 175.512C34.5881 175.171 34.9561 174.76 35.1908 174.28V172.2ZM39.9763 175.736C40.1363 175.875 40.2163 176.072 40.2163 176.328C40.2163 176.584 40.1363 176.787 39.9763 176.936C39.8163 177.075 39.6189 177.144 39.3843 177.144C39.1496 177.144 38.9469 177.075 38.7763 176.936C38.6163 176.787 38.5363 176.584 38.5363 176.328C38.5363 176.072 38.6163 175.875 38.7763 175.736C38.9469 175.597 39.1496 175.528 39.3843 175.528C39.6189 175.528 39.8163 175.597 39.9763 175.736ZM42.7158 176.12C41.9051 175.395 41.4998 174.408 41.4998 173.16C41.4998 171.912 41.9051 170.931 42.7158 170.216C43.5264 169.491 44.4864 169.128 45.5958 169.128C46.7158 169.128 47.6758 169.491 48.4758 170.216C49.2864 170.931 49.6918 171.912 49.6918 173.16C49.6918 174.408 49.2864 175.395 48.4758 176.12C47.6758 176.835 46.7158 177.192 45.5958 177.192C44.4864 177.192 43.5264 176.835 42.7158 176.12ZM47.6118 175.224C48.1451 174.712 48.4118 174.024 48.4118 173.16C48.4118 172.296 48.1451 171.613 47.6118 171.112C47.0784 170.6 46.4064 170.344 45.5958 170.344C44.7851 170.344 44.1131 170.6 43.5798 171.112C43.0464 171.613 42.7798 172.296 42.7798 173.16C42.7798 174.024 43.0464 174.712 43.5798 175.224C44.1131 175.725 44.7851 175.976 45.5958 175.976C46.4064 175.976 47.0784 175.725 47.6118 175.224ZM52.2158 176.12C51.4051 175.395 50.9998 174.408 50.9998 173.16C50.9998 171.912 51.4051 170.931 52.2158 170.216C53.0264 169.491 53.9864 169.128 55.0958 169.128C56.2158 169.128 57.1758 169.491 57.9758 170.216C58.7864 170.931 59.1918 171.912 59.1918 173.16C59.1918 174.408 58.7864 175.395 57.9758 176.12C57.1758 176.835 56.2158 177.192 55.0958 177.192C53.9864 177.192 53.0264 176.835 52.2158 176.12ZM57.1118 175.224C57.6451 174.712 57.9118 174.024 57.9118 173.16C57.9118 172.296 57.6451 171.613 57.1118 171.112C56.5784 170.6 55.9064 170.344 55.0958 170.344C54.2851 170.344 53.6131 170.6 53.0798 171.112C52.5464 171.613 52.2798 172.296 52.2798 173.16C52.2798 174.024 52.5464 174.712 53.0798 175.224C53.6131 175.725 54.2851 175.976 55.0958 175.976C55.9064 175.976 56.5784 175.725 57.1118 175.224ZM62.1798 170.456C62.4571 170.083 62.8411 169.768 63.3318 169.512C63.8331 169.256 64.3718 169.128 64.9478 169.128C65.8758 169.128 66.6384 169.421 67.2358 170.008C67.8438 170.584 68.1478 171.336 68.1478 172.264V177H66.8678V172.424C66.8678 171.731 66.6758 171.208 66.2918 170.856C65.9184 170.493 65.4224 170.312 64.8038 170.312C63.8224 170.312 62.9904 170.824 62.3078 171.848V177H61.0278V169.32H62.1798V170.456ZM76.6584 175.4C76.6584 175.795 76.8557 175.992 77.2504 175.992C77.421 175.992 77.6184 175.955 77.8424 175.88V176.92C77.5224 177.037 77.2024 177.096 76.8824 177.096C76.1464 177.096 75.677 176.787 75.4744 176.168C74.653 176.851 73.6557 177.192 72.4824 177.192C71.7357 177.192 71.0957 176.995 70.5624 176.6C70.0397 176.195 69.7784 175.613 69.7784 174.856C69.7784 173.949 70.1144 173.293 70.7864 172.888C71.469 172.472 72.2904 172.264 73.2504 172.264C73.9544 172.264 74.6637 172.344 75.3784 172.504V172.232C75.3784 171.645 75.1864 171.181 74.8024 170.84C74.4184 170.488 73.8797 170.312 73.1864 170.312C72.2157 170.312 71.2824 170.504 70.3864 170.888V169.64C71.389 169.299 72.365 169.128 73.3144 169.128C74.3597 169.128 75.1757 169.411 75.7624 169.976C76.3597 170.531 76.6584 171.336 76.6584 172.392V175.4ZM71.0904 174.792C71.0904 175.219 71.2504 175.544 71.5704 175.768C71.901 175.981 72.2957 176.088 72.7544 176.088C73.8104 176.088 74.685 175.715 75.3784 174.968V173.56C74.653 173.411 74.0024 173.336 73.4264 173.336C72.7757 173.336 72.221 173.453 71.7624 173.688C71.3144 173.912 71.0904 174.28 71.0904 174.792ZM78.6415 173.16C78.6415 172.179 78.8175 171.24 79.1695 170.344C79.5215 169.448 80.0228 168.648 80.6735 167.944C81.3242 167.229 82.1508 166.664 83.1535 166.248C84.1562 165.821 85.2655 165.608 86.4815 165.608C87.4415 165.608 88.3375 165.752 89.1695 166.04C90.0015 166.317 90.7055 166.691 91.2815 167.16C91.8575 167.629 92.3535 168.168 92.7695 168.776C93.1855 169.373 93.4895 169.992 93.6815 170.632C93.8842 171.272 93.9855 171.907 93.9855 172.536C93.9855 173.955 93.6975 175.032 93.1215 175.768C92.5562 176.504 91.7935 176.872 90.8335 176.872C90.2148 176.872 89.6868 176.733 89.2495 176.456C88.8122 176.168 88.5082 175.757 88.3375 175.224C87.8148 176.099 87.0095 176.536 85.9215 176.536C85.0148 176.536 84.2628 176.221 83.6655 175.592C83.0788 174.952 82.7855 174.157 82.7855 173.208C82.7855 172.248 83.0788 171.448 83.6655 170.808C84.2628 170.168 85.0148 169.848 85.9215 169.848C86.4228 169.848 86.8762 169.965 87.2815 170.2C87.6868 170.424 87.9908 170.701 88.1935 171.032V170.008H89.4415V174.2C89.4415 175.235 89.9108 175.752 90.8495 175.752C91.4468 175.752 91.8948 175.459 92.1935 174.872C92.4922 174.285 92.6415 173.507 92.6415 172.536C92.6415 171.864 92.5082 171.203 92.2415 170.552C91.9748 169.891 91.5908 169.288 91.0895 168.744C90.5882 168.189 89.9375 167.741 89.1375 167.4C88.3375 167.059 87.4522 166.888 86.4815 166.888C85.1482 166.888 83.9802 167.187 82.9775 167.784C81.9748 168.371 81.2228 169.133 80.7215 170.072C80.2308 171.011 79.9855 172.04 79.9855 173.16C79.9855 174.461 80.3002 175.597 80.9295 176.568C81.5695 177.528 82.4068 178.243 83.4415 178.712C84.4868 179.192 85.6548 179.432 86.9455 179.432C88.2042 179.432 89.3775 179.24 90.4655 178.856V180.136C89.3882 180.52 88.2042 180.712 86.9135 180.712C85.8042 180.712 84.7535 180.547 83.7615 180.216C82.7802 179.885 81.9055 179.411 81.1375 178.792C80.3695 178.173 79.7615 177.379 79.3135 176.408C78.8655 175.437 78.6415 174.355 78.6415 173.16ZM88.1935 172.616C88.0762 172.179 87.8308 171.805 87.4575 171.496C87.0842 171.187 86.6255 171.032 86.0815 171.032C85.5162 171.032 85.0362 171.235 84.6415 171.64C84.2575 172.035 84.0655 172.552 84.0655 173.192C84.0655 173.832 84.2575 174.355 84.6415 174.76C85.0362 175.155 85.5162 175.352 86.0815 175.352C86.6255 175.352 87.0842 175.197 87.4575 174.888C87.8308 174.579 88.0762 174.205 88.1935 173.768V172.616ZM97.214 177H95.934V169.32H97.086V170.344C97.8433 169.533 98.718 169.128 99.71 169.128C100.851 169.128 101.673 169.56 102.174 170.424C103.017 169.56 103.95 169.128 104.974 169.128C105.902 169.128 106.622 169.421 107.134 170.008C107.646 170.584 107.902 171.336 107.902 172.264V177H106.622V172.232C106.622 171.645 106.462 171.181 106.142 170.84C105.822 170.488 105.385 170.312 104.83 170.312C104.009 170.312 103.262 170.733 102.59 171.576C102.622 171.8 102.638 172.029 102.638 172.264V177H101.358V172.232C101.358 171.645 101.198 171.181 100.878 170.84C100.558 170.488 100.121 170.312 99.566 170.312C98.7127 170.312 97.9287 170.776 97.214 171.704V177ZM116.408 175.4C116.408 175.795 116.606 175.992 117 175.992C117.171 175.992 117.368 175.955 117.592 175.88V176.92C117.272 177.037 116.952 177.096 116.632 177.096C115.896 177.096 115.427 176.787 115.224 176.168C114.403 176.851 113.406 177.192 112.232 177.192C111.486 177.192 110.846 176.995 110.312 176.6C109.79 176.195 109.528 175.613 109.528 174.856C109.528 173.949 109.864 173.293 110.536 172.888C111.219 172.472 112.04 172.264 113 172.264C113.704 172.264 114.414 172.344 115.128 172.504V172.232C115.128 171.645 114.936 171.181 114.552 170.84C114.168 170.488 113.63 170.312 112.936 170.312C111.966 170.312 111.032 170.504 110.136 170.888V169.64C111.139 169.299 112.115 169.128 113.064 169.128C114.11 169.128 114.926 169.411 115.512 169.976C116.11 170.531 116.408 171.336 116.408 172.392V175.4ZM110.84 174.792C110.84 175.219 111 175.544 111.32 175.768C111.651 175.981 112.046 176.088 112.504 176.088C113.56 176.088 114.435 175.715 115.128 174.968V173.56C114.403 173.411 113.752 173.336 113.176 173.336C112.526 173.336 111.971 173.453 111.512 173.688C111.064 173.912 110.84 174.28 110.84 174.792ZM120.184 177H118.904V169.32H120.184V177ZM120.136 166.28C120.296 166.419 120.376 166.616 120.376 166.872C120.376 167.128 120.296 167.331 120.136 167.48C119.976 167.619 119.778 167.688 119.544 167.688C119.309 167.688 119.112 167.619 118.952 167.48C118.792 167.331 118.712 167.128 118.712 166.872C118.712 166.616 118.792 166.419 118.952 166.28C119.112 166.131 119.309 166.056 119.544 166.056C119.778 166.056 119.976 166.131 120.136 166.28ZM122.622 165.32H123.902V177H122.622V165.32ZM127.445 175.736C127.605 175.875 127.685 176.072 127.685 176.328C127.685 176.584 127.605 176.787 127.445 176.936C127.285 177.075 127.088 177.144 126.853 177.144C126.618 177.144 126.416 177.075 126.245 176.936C126.085 176.787 126.005 176.584 126.005 176.328C126.005 176.072 126.085 175.875 126.245 175.736C126.416 175.597 126.618 175.528 126.853 175.528C127.088 175.528 127.285 175.597 127.445 175.736ZM130.899 170.68C131.197 170.179 131.656 169.789 132.275 169.512C132.893 169.224 133.539 169.107 134.211 169.16V170.44C133.464 170.355 132.803 170.477 132.227 170.808C131.661 171.128 131.261 171.597 131.027 172.216V177H129.747V169.32H130.899V170.68ZM141.35 169.32H142.63V177H141.478V175.864C141.201 176.237 140.811 176.552 140.31 176.808C139.819 177.064 139.286 177.192 138.71 177.192C137.718 177.192 136.934 176.909 136.358 176.344C135.793 175.768 135.51 175.005 135.51 174.056V169.32H136.79V173.896C136.79 175.304 137.478 176.008 138.854 176.008C139.835 176.008 140.667 175.496 141.35 174.472V169.32Z" fill="#A47312"/>
</svg>
