<svg width="165" height="165" viewBox="0 0 165 165" fill="none" xmlns="http://www.w3.org/2000/svg">
<rect x="0.5" y="0.5" width="164" height="164" rx="4.5" stroke="#999999" stroke-dasharray="10 5"/>
<path d="M27.816 32V22.08H34.264V32H35.608V20.8H26.472V32H27.816ZM39.4141 25.6V24.32H38.2621V35.52H39.5421V30.848C40.1021 31.504 41.0461 32.192 42.5181 32.192C44.7101 32.192 46.3581 30.464 46.3581 28.16C46.3581 25.856 44.7101 24.128 42.5181 24.128C41.0461 24.128 40.1021 24.816 39.4141 25.6ZM45.0781 28.16C45.0781 29.92 43.8621 31.008 42.3741 31.008C40.9981 31.008 39.9741 30.112 39.5421 29.12V27.2C39.9741 26.208 40.9981 25.312 42.3741 25.312C43.8621 25.312 45.0781 26.4 45.0781 28.16ZM47.6716 28.16C47.6716 30.896 49.6556 32.192 51.9276 32.192C52.9356 32.192 53.9436 32 54.6476 31.632V30.384C53.9916 30.752 53.0636 31.008 52.1196 31.008C50.5676 31.008 49.1116 30.336 48.9516 28.72H55.0636C55.5436 26.544 54.4556 24.128 51.4956 24.128C49.6716 24.128 47.6716 25.472 47.6716 28.16ZM53.9276 27.6H48.9516C49.0476 26.096 50.2636 25.312 51.5756 25.312C53.5276 25.312 54.0396 26.784 53.9276 27.6ZM58.022 32L62.726 26.384V32H64.006V24.32H62.918L58.214 29.936V24.32H56.934V32H58.022ZM67.5875 32V26.208L70.0835 30H71.0435L73.5395 26.208V32H74.7555V24.32H73.3635L70.5635 28.576L67.7635 24.32H66.3715V32H67.5875ZM80.3535 30.544L77.4575 24.32H76.0975L79.7455 32.016L79.4575 32.72C78.9615 33.968 78.3375 34.592 77.4735 34.592C77.2495 34.592 77.0255 34.56 76.8015 34.496V35.6C77.0895 35.68 77.3615 35.712 77.6335 35.712C78.7535 35.712 79.7295 35.008 80.5295 33.152L84.3055 24.32H82.9455L80.3535 30.544ZM97.5709 34.08V30.816H96.4509V24.32H95.1709V30.816H91.7309V24.32H90.4509V30.816H87.0109V24.32H85.7309V32H96.3229V34.08H97.5709ZM98.5935 28.16C98.5935 30.896 100.578 32.192 102.85 32.192C103.858 32.192 104.866 32 105.57 31.632V30.384C104.914 30.752 103.986 31.008 103.042 31.008C101.49 31.008 100.034 30.336 99.8735 28.72H105.986C106.466 26.544 105.378 24.128 102.418 24.128C100.594 24.128 98.5935 25.472 98.5935 28.16ZM104.85 27.6H99.8735C99.9695 26.096 101.186 25.312 102.498 25.312C104.45 25.312 104.962 26.784 104.85 27.6ZM107.328 28.192C107.328 30.928 109.424 32.192 111.44 32.192C112.4 32.192 113.216 32.016 113.936 31.664V30.384C113.296 30.768 112.448 31.008 111.616 31.008C110.112 31.008 108.608 30.128 108.608 28.16C108.608 26.144 110.16 25.312 111.648 25.312C112.464 25.312 113.28 25.552 113.856 26V24.752C113.2 24.32 112.352 24.128 111.488 24.128C109.488 24.128 107.328 25.392 107.328 28.192ZM119.009 32V25.504H121.825V24.32H114.897V25.504H117.729V32H119.009ZM127.614 32C129.278 32 130.094 31.136 130.094 29.872C130.094 28.912 129.454 28.304 128.83 28.096C129.406 27.84 129.854 27.2 129.854 26.4C129.854 25.04 128.83 24.32 127.486 24.32H123.278V32H127.614ZM124.558 28.672H127.486C128.126 28.672 128.814 28.88 128.814 29.792C128.814 30.64 128.238 30.88 127.438 30.88H124.558V28.672ZM124.558 25.44H127.358C127.902 25.44 128.558 25.664 128.558 26.528C128.558 27.312 128.03 27.568 127.358 27.568H124.558V25.44ZM138.283 30.4V27.392C138.283 25.248 136.987 24.128 134.939 24.128C133.675 24.128 132.619 24.432 132.011 24.64V25.888C132.683 25.6 133.627 25.312 134.811 25.312C136.219 25.312 137.003 26.08 137.003 27.232V27.504C136.363 27.36 135.547 27.264 134.875 27.264C133.227 27.264 131.403 27.872 131.403 29.856C131.403 31.472 132.747 32.192 134.107 32.192C135.355 32.192 136.331 31.808 137.099 31.168C137.323 31.84 137.883 32.096 138.507 32.096C138.827 32.096 139.163 32.032 139.467 31.92V30.88C139.275 30.944 139.067 30.992 138.875 30.992C138.539 30.992 138.283 30.864 138.283 30.4ZM132.715 29.792C132.715 28.672 133.931 28.336 135.051 28.336C135.675 28.336 136.459 28.448 137.003 28.56V29.968C136.331 30.688 135.355 31.088 134.379 31.088C133.531 31.088 132.715 30.688 132.715 29.792Z" fill="#666666"/>
<path d="M27.816 65H26.472V53.8H35.608V65H34.264V55.08H27.816V65ZM39.4141 58.6C40.2781 57.6187 41.3128 57.128 42.5181 57.128C43.6168 57.128 44.5288 57.512 45.2541 58.28C45.9901 59.048 46.3581 60.008 46.3581 61.16C46.3581 62.312 45.9901 63.272 45.2541 64.04C44.5288 64.808 43.6168 65.192 42.5181 65.192C41.3021 65.192 40.3101 64.744 39.5421 63.848V68.52H38.2621V57.32H39.4141V58.6ZM44.2941 63.224C44.8168 62.7013 45.0781 62.0133 45.0781 61.16C45.0781 60.3067 44.8168 59.6187 44.2941 59.096C43.7821 58.5733 43.1421 58.312 42.3741 58.312C41.7235 58.312 41.1475 58.4933 40.6461 58.856C40.1448 59.2187 39.7768 59.6667 39.5421 60.2V62.12C39.7768 62.6533 40.1448 63.1013 40.6461 63.464C41.1475 63.8267 41.7235 64.008 42.3741 64.008C43.1421 64.008 43.7821 63.7467 44.2941 63.224ZM47.6716 61.16C47.6716 59.9013 48.0556 58.9147 48.8236 58.2C49.6023 57.4853 50.493 57.128 51.4956 57.128C52.4343 57.128 53.2076 57.3627 53.8156 57.832C54.4343 58.3013 54.8396 58.8827 55.0316 59.576C55.2236 60.2587 55.2343 60.9733 55.0636 61.72H48.9516C49.0263 62.4773 49.3623 63.048 49.9596 63.432C50.557 63.816 51.277 64.008 52.1196 64.008C53.0583 64.008 53.901 63.8 54.6476 63.384V64.632C53.933 65.0053 53.0263 65.192 51.9276 65.192C50.7116 65.192 49.6983 64.8453 48.8876 64.152C48.077 63.4587 47.6716 62.4613 47.6716 61.16ZM53.9276 60.6C53.9596 60.376 53.9436 60.1413 53.8796 59.896C53.8156 59.6507 53.6983 59.4053 53.5276 59.16C53.3676 58.9147 53.117 58.712 52.7756 58.552C52.4343 58.392 52.0343 58.312 51.5756 58.312C50.8823 58.312 50.2796 58.5147 49.7676 58.92C49.2663 59.3253 48.9943 59.8853 48.9516 60.6H53.9276ZM58.022 65H56.934V57.32H58.214V62.936L62.918 57.32H64.006V65H62.726V59.384L58.022 65ZM67.5875 65H66.3715V57.32H67.7635L70.5635 61.576L73.3635 57.32H74.7555V65H73.5395V59.208L71.0435 63H70.0835L67.5875 59.208V65ZM80.3535 63.544L82.9455 57.32H84.3055L80.5295 66.152C79.7935 67.8587 78.8282 68.712 77.6335 68.712C77.3455 68.712 77.0682 68.6747 76.8015 68.6V67.496C77.0255 67.56 77.2495 67.592 77.4735 67.592C78.2948 67.592 78.9562 66.968 79.4575 65.72L79.7455 65.016L76.0975 57.32H77.4575L80.3535 63.544ZM97.5709 67.08H96.3229V65H85.7309V57.32H87.0109V63.816H90.4509V57.32H91.7309V63.816H95.1709V57.32H96.4509V63.816H97.5709V67.08ZM98.5935 61.16C98.5935 59.9013 98.9775 58.9147 99.7455 58.2C100.524 57.4853 101.415 57.128 102.418 57.128C103.356 57.128 104.13 57.3627 104.738 57.832C105.356 58.3013 105.762 58.8827 105.954 59.576C106.146 60.2587 106.156 60.9733 105.986 61.72H99.8735C99.9482 62.4773 100.284 63.048 100.882 63.432C101.479 63.816 102.199 64.008 103.042 64.008C103.98 64.008 104.823 63.8 105.57 63.384V64.632C104.855 65.0053 103.948 65.192 102.85 65.192C101.634 65.192 100.62 64.8453 99.8095 64.152C98.9988 63.4587 98.5935 62.4613 98.5935 61.16ZM104.85 60.6C104.882 60.376 104.866 60.1413 104.802 59.896C104.738 59.6507 104.62 59.4053 104.45 59.16C104.29 58.9147 104.039 58.712 103.698 58.552C103.356 58.392 102.956 58.312 102.498 58.312C101.804 58.312 101.202 58.5147 100.69 58.92C100.188 59.3253 99.9162 59.8853 99.8735 60.6H104.85ZM107.328 61.192C107.328 60.52 107.451 59.9173 107.696 59.384C107.941 58.8507 108.261 58.424 108.656 58.104C109.061 57.784 109.504 57.544 109.984 57.384C110.475 57.2133 110.976 57.128 111.488 57.128C112.437 57.128 113.227 57.336 113.856 57.752V59C113.269 58.5413 112.533 58.312 111.648 58.312C110.816 58.312 110.101 58.552 109.504 59.032C108.907 59.512 108.608 60.2213 108.608 61.16C108.608 62.088 108.901 62.7973 109.488 63.288C110.085 63.768 110.795 64.008 111.616 64.008C112.469 64.008 113.243 63.8 113.936 63.384V64.664C113.211 65.016 112.379 65.192 111.44 65.192C110.331 65.192 109.365 64.8453 108.544 64.152C107.733 63.4587 107.328 62.472 107.328 61.192ZM119.009 65H117.729V58.504H114.897V57.32H121.825V58.504H119.009V65ZM127.614 65H123.278V57.32H127.486C128.179 57.32 128.744 57.5013 129.182 57.864C129.63 58.2267 129.854 58.7387 129.854 59.4C129.854 59.784 129.758 60.1307 129.566 60.44C129.374 60.7493 129.128 60.968 128.83 61.096C129.182 61.2133 129.48 61.4267 129.726 61.736C129.971 62.0453 130.094 62.424 130.094 62.872C130.094 63.5227 129.88 64.04 129.454 64.424C129.038 64.808 128.424 65 127.614 65ZM124.558 61.672V63.88H127.438C128.355 63.88 128.814 63.5173 128.814 62.792C128.814 62.0453 128.371 61.672 127.486 61.672H124.558ZM124.558 58.44V60.568H127.358C128.158 60.568 128.558 60.2213 128.558 59.528C128.558 59.1333 128.44 58.856 128.206 58.696C127.971 58.5253 127.688 58.44 127.358 58.44H124.558ZM138.283 63.4C138.283 63.7947 138.481 63.992 138.875 63.992C139.046 63.992 139.243 63.9547 139.467 63.88V64.92C139.147 65.0373 138.827 65.096 138.507 65.096C137.771 65.096 137.302 64.7867 137.099 64.168C136.278 64.8507 135.281 65.192 134.107 65.192C133.361 65.192 132.721 64.9947 132.187 64.6C131.665 64.1947 131.403 63.6133 131.403 62.856C131.403 61.9493 131.739 61.2933 132.411 60.888C133.094 60.472 133.915 60.264 134.875 60.264C135.579 60.264 136.289 60.344 137.003 60.504V60.232C137.003 59.6453 136.811 59.1813 136.427 58.84C136.043 58.488 135.505 58.312 134.811 58.312C133.841 58.312 132.907 58.504 132.011 58.888V57.64C133.014 57.2987 133.99 57.128 134.939 57.128C135.985 57.128 136.801 57.4107 137.387 57.976C137.985 58.5307 138.283 59.336 138.283 60.392V63.4ZM132.715 62.792C132.715 63.2187 132.875 63.544 133.195 63.768C133.526 63.9813 133.921 64.088 134.379 64.088C135.435 64.088 136.31 63.7147 137.003 62.968V61.56C136.278 61.4107 135.627 61.336 135.051 61.336C134.401 61.336 133.846 61.4533 133.387 61.688C132.939 61.912 132.715 62.28 132.715 62.792Z" fill="#CC9933"/>
<path d="M27.816 141H26.472V129.8H35.608V141H34.264V131.08H27.816V141ZM39.4141 134.6C40.2781 133.619 41.3128 133.128 42.5181 133.128C43.6168 133.128 44.5288 133.512 45.2541 134.28C45.9901 135.048 46.3581 136.008 46.3581 137.16C46.3581 138.312 45.9901 139.272 45.2541 140.04C44.5288 140.808 43.6168 141.192 42.5181 141.192C41.3021 141.192 40.3101 140.744 39.5421 139.848V144.52H38.2621V133.32H39.4141V134.6ZM44.2941 139.224C44.8168 138.701 45.0781 138.013 45.0781 137.16C45.0781 136.307 44.8168 135.619 44.2941 135.096C43.7821 134.573 43.1421 134.312 42.3741 134.312C41.7235 134.312 41.1475 134.493 40.6461 134.856C40.1448 135.219 39.7768 135.667 39.5421 136.2V138.12C39.7768 138.653 40.1448 139.101 40.6461 139.464C41.1475 139.827 41.7235 140.008 42.3741 140.008C43.1421 140.008 43.7821 139.747 44.2941 139.224ZM47.6716 137.16C47.6716 135.901 48.0556 134.915 48.8236 134.2C49.6023 133.485 50.493 133.128 51.4956 133.128C52.4343 133.128 53.2076 133.363 53.8156 133.832C54.4343 134.301 54.8396 134.883 55.0316 135.576C55.2236 136.259 55.2343 136.973 55.0636 137.72H48.9516C49.0263 138.477 49.3623 139.048 49.9596 139.432C50.557 139.816 51.277 140.008 52.1196 140.008C53.0583 140.008 53.901 139.8 54.6476 139.384V140.632C53.933 141.005 53.0263 141.192 51.9276 141.192C50.7116 141.192 49.6983 140.845 48.8876 140.152C48.077 139.459 47.6716 138.461 47.6716 137.16ZM53.9276 136.6C53.9596 136.376 53.9436 136.141 53.8796 135.896C53.8156 135.651 53.6983 135.405 53.5276 135.16C53.3676 134.915 53.117 134.712 52.7756 134.552C52.4343 134.392 52.0343 134.312 51.5756 134.312C50.8823 134.312 50.2796 134.515 49.7676 134.92C49.2663 135.325 48.9943 135.885 48.9516 136.6H53.9276ZM58.022 141H56.934V133.32H58.214V138.936L62.918 133.32H64.006V141H62.726V135.384L58.022 141ZM67.5875 141H66.3715V133.32H67.7635L70.5635 137.576L73.3635 133.32H74.7555V141H73.5395V135.208L71.0435 139H70.0835L67.5875 135.208V141ZM80.3535 139.544L82.9455 133.32H84.3055L80.5295 142.152C79.7935 143.859 78.8282 144.712 77.6335 144.712C77.3455 144.712 77.0682 144.675 76.8015 144.6V143.496C77.0255 143.56 77.2495 143.592 77.4735 143.592C78.2948 143.592 78.9562 142.968 79.4575 141.72L79.7455 141.016L76.0975 133.32H77.4575L80.3535 139.544ZM97.5709 143.08H96.3229V141H85.7309V133.32H87.0109V139.816H90.4509V133.32H91.7309V139.816H95.1709V133.32H96.4509V139.816H97.5709V143.08ZM98.5935 137.16C98.5935 135.901 98.9775 134.915 99.7455 134.2C100.524 133.485 101.415 133.128 102.418 133.128C103.356 133.128 104.13 133.363 104.738 133.832C105.356 134.301 105.762 134.883 105.954 135.576C106.146 136.259 106.156 136.973 105.986 137.72H99.8735C99.9482 138.477 100.284 139.048 100.882 139.432C101.479 139.816 102.199 140.008 103.042 140.008C103.98 140.008 104.823 139.8 105.57 139.384V140.632C104.855 141.005 103.948 141.192 102.85 141.192C101.634 141.192 100.62 140.845 99.8095 140.152C98.9988 139.459 98.5935 138.461 98.5935 137.16ZM104.85 136.6C104.882 136.376 104.866 136.141 104.802 135.896C104.738 135.651 104.62 135.405 104.45 135.16C104.29 134.915 104.039 134.712 103.698 134.552C103.356 134.392 102.956 134.312 102.498 134.312C101.804 134.312 101.202 134.515 100.69 134.92C100.188 135.325 99.9162 135.885 99.8735 136.6H104.85ZM107.328 137.192C107.328 136.52 107.451 135.917 107.696 135.384C107.941 134.851 108.261 134.424 108.656 134.104C109.061 133.784 109.504 133.544 109.984 133.384C110.475 133.213 110.976 133.128 111.488 133.128C112.437 133.128 113.227 133.336 113.856 133.752V135C113.269 134.541 112.533 134.312 111.648 134.312C110.816 134.312 110.101 134.552 109.504 135.032C108.907 135.512 108.608 136.221 108.608 137.16C108.608 138.088 108.901 138.797 109.488 139.288C110.085 139.768 110.795 140.008 111.616 140.008C112.469 140.008 113.243 139.8 113.936 139.384V140.664C113.211 141.016 112.379 141.192 111.44 141.192C110.331 141.192 109.365 140.845 108.544 140.152C107.733 139.459 107.328 138.472 107.328 137.192ZM119.009 141H117.729V134.504H114.897V133.32H121.825V134.504H119.009V141ZM127.614 141H123.278V133.32H127.486C128.179 133.32 128.744 133.501 129.182 133.864C129.63 134.227 129.854 134.739 129.854 135.4C129.854 135.784 129.758 136.131 129.566 136.44C129.374 136.749 129.128 136.968 128.83 137.096C129.182 137.213 129.48 137.427 129.726 137.736C129.971 138.045 130.094 138.424 130.094 138.872C130.094 139.523 129.88 140.04 129.454 140.424C129.038 140.808 128.424 141 127.614 141ZM124.558 137.672V139.88H127.438C128.355 139.88 128.814 139.517 128.814 138.792C128.814 138.045 128.371 137.672 127.486 137.672H124.558ZM124.558 134.44V136.568H127.358C128.158 136.568 128.558 136.221 128.558 135.528C128.558 135.133 128.44 134.856 128.206 134.696C127.971 134.525 127.688 134.44 127.358 134.44H124.558ZM138.283 139.4C138.283 139.795 138.481 139.992 138.875 139.992C139.046 139.992 139.243 139.955 139.467 139.88V140.92C139.147 141.037 138.827 141.096 138.507 141.096C137.771 141.096 137.302 140.787 137.099 140.168C136.278 140.851 135.281 141.192 134.107 141.192C133.361 141.192 132.721 140.995 132.187 140.6C131.665 140.195 131.403 139.613 131.403 138.856C131.403 137.949 131.739 137.293 132.411 136.888C133.094 136.472 133.915 136.264 134.875 136.264C135.579 136.264 136.289 136.344 137.003 136.504V136.232C137.003 135.645 136.811 135.181 136.427 134.84C136.043 134.488 135.505 134.312 134.811 134.312C133.841 134.312 132.907 134.504 132.011 134.888V133.64C133.014 133.299 133.99 133.128 134.939 133.128C135.985 133.128 136.801 133.411 137.387 133.976C137.985 134.531 138.283 135.336 138.283 136.392V139.4ZM132.715 138.792C132.715 139.219 132.875 139.544 133.195 139.768C133.526 139.981 133.921 140.088 134.379 140.088C135.435 140.088 136.31 139.715 137.003 138.968V137.56C136.278 137.411 135.627 137.336 135.051 137.336C134.401 137.336 133.846 137.453 133.387 137.688C132.939 137.912 132.715 138.28 132.715 138.792Z" fill="#A47312"/>
<rect x="20.5" y="86.5" width="124" height="25" stroke="#CC9933"/>
<path d="M27.816 103H26.472V91.8H35.608V103H34.264V93.08H27.816V103ZM39.4141 96.6C40.2781 95.6187 41.3128 95.128 42.5181 95.128C43.6168 95.128 44.5288 95.512 45.2541 96.28C45.9901 97.048 46.3581 98.008 46.3581 99.16C46.3581 100.312 45.9901 101.272 45.2541 102.04C44.5288 102.808 43.6168 103.192 42.5181 103.192C41.3021 103.192 40.3101 102.744 39.5421 101.848V106.52H38.2621V95.32H39.4141V96.6ZM44.2941 101.224C44.8168 100.701 45.0781 100.013 45.0781 99.16C45.0781 98.3067 44.8168 97.6187 44.2941 97.096C43.7821 96.5733 43.1421 96.312 42.3741 96.312C41.7235 96.312 41.1475 96.4933 40.6461 96.856C40.1448 97.2187 39.7768 97.6667 39.5421 98.2V100.12C39.7768 100.653 40.1448 101.101 40.6461 101.464C41.1475 101.827 41.7235 102.008 42.3741 102.008C43.1421 102.008 43.7821 101.747 44.2941 101.224ZM47.6716 99.16C47.6716 97.9013 48.0556 96.9147 48.8236 96.2C49.6023 95.4853 50.493 95.128 51.4956 95.128C52.4343 95.128 53.2076 95.3627 53.8156 95.832C54.4343 96.3013 54.8396 96.8827 55.0316 97.576C55.2236 98.2587 55.2343 98.9733 55.0636 99.72H48.9516C49.0263 100.477 49.3623 101.048 49.9596 101.432C50.557 101.816 51.277 102.008 52.1196 102.008C53.0583 102.008 53.901 101.8 54.6476 101.384V102.632C53.933 103.005 53.0263 103.192 51.9276 103.192C50.7116 103.192 49.6983 102.845 48.8876 102.152C48.077 101.459 47.6716 100.461 47.6716 99.16ZM53.9276 98.6C53.9596 98.376 53.9436 98.1413 53.8796 97.896C53.8156 97.6507 53.6983 97.4053 53.5276 97.16C53.3676 96.9147 53.117 96.712 52.7756 96.552C52.4343 96.392 52.0343 96.312 51.5756 96.312C50.8823 96.312 50.2796 96.5147 49.7676 96.92C49.2663 97.3253 48.9943 97.8853 48.9516 98.6H53.9276ZM58.022 103H56.934V95.32H58.214V100.936L62.918 95.32H64.006V103H62.726V97.384L58.022 103ZM67.5875 103H66.3715V95.32H67.7635L70.5635 99.576L73.3635 95.32H74.7555V103H73.5395V97.208L71.0435 101H70.0835L67.5875 97.208V103ZM80.3535 101.544L82.9455 95.32H84.3055L80.5295 104.152C79.7935 105.859 78.8282 106.712 77.6335 106.712C77.3455 106.712 77.0682 106.675 76.8015 106.6V105.496C77.0255 105.56 77.2495 105.592 77.4735 105.592C78.2948 105.592 78.9562 104.968 79.4575 103.72L79.7455 103.016L76.0975 95.32H77.4575L80.3535 101.544ZM97.5709 105.08H96.3229V103H85.7309V95.32H87.0109V101.816H90.4509V95.32H91.7309V101.816H95.1709V95.32H96.4509V101.816H97.5709V105.08ZM98.5935 99.16C98.5935 97.9013 98.9775 96.9147 99.7455 96.2C100.524 95.4853 101.415 95.128 102.418 95.128C103.356 95.128 104.13 95.3627 104.738 95.832C105.356 96.3013 105.762 96.8827 105.954 97.576C106.146 98.2587 106.156 98.9733 105.986 99.72H99.8735C99.9482 100.477 100.284 101.048 100.882 101.432C101.479 101.816 102.199 102.008 103.042 102.008C103.98 102.008 104.823 101.8 105.57 101.384V102.632C104.855 103.005 103.948 103.192 102.85 103.192C101.634 103.192 100.62 102.845 99.8095 102.152C98.9988 101.459 98.5935 100.461 98.5935 99.16ZM104.85 98.6C104.882 98.376 104.866 98.1413 104.802 97.896C104.738 97.6507 104.62 97.4053 104.45 97.16C104.29 96.9147 104.039 96.712 103.698 96.552C103.356 96.392 102.956 96.312 102.498 96.312C101.804 96.312 101.202 96.5147 100.69 96.92C100.188 97.3253 99.9162 97.8853 99.8735 98.6H104.85ZM107.328 99.192C107.328 98.52 107.451 97.9173 107.696 97.384C107.941 96.8507 108.261 96.424 108.656 96.104C109.061 95.784 109.504 95.544 109.984 95.384C110.475 95.2133 110.976 95.128 111.488 95.128C112.437 95.128 113.227 95.336 113.856 95.752V97C113.269 96.5413 112.533 96.312 111.648 96.312C110.816 96.312 110.101 96.552 109.504 97.032C108.907 97.512 108.608 98.2213 108.608 99.16C108.608 100.088 108.901 100.797 109.488 101.288C110.085 101.768 110.795 102.008 111.616 102.008C112.469 102.008 113.243 101.8 113.936 101.384V102.664C113.211 103.016 112.379 103.192 111.44 103.192C110.331 103.192 109.365 102.845 108.544 102.152C107.733 101.459 107.328 100.472 107.328 99.192ZM119.009 103H117.729V96.504H114.897V95.32H121.825V96.504H119.009V103ZM127.614 103H123.278V95.32H127.486C128.179 95.32 128.744 95.5013 129.182 95.864C129.63 96.2267 129.854 96.7387 129.854 97.4C129.854 97.784 129.758 98.1307 129.566 98.44C129.374 98.7493 129.128 98.968 128.83 99.096C129.182 99.2133 129.48 99.4267 129.726 99.736C129.971 100.045 130.094 100.424 130.094 100.872C130.094 101.523 129.88 102.04 129.454 102.424C129.038 102.808 128.424 103 127.614 103ZM124.558 99.672V101.88H127.438C128.355 101.88 128.814 101.517 128.814 100.792C128.814 100.045 128.371 99.672 127.486 99.672H124.558ZM124.558 96.44V98.568H127.358C128.158 98.568 128.558 98.2213 128.558 97.528C128.558 97.1333 128.44 96.856 128.206 96.696C127.971 96.5253 127.688 96.44 127.358 96.44H124.558ZM138.283 101.4C138.283 101.795 138.481 101.992 138.875 101.992C139.046 101.992 139.243 101.955 139.467 101.88V102.92C139.147 103.037 138.827 103.096 138.507 103.096C137.771 103.096 137.302 102.787 137.099 102.168C136.278 102.851 135.281 103.192 134.107 103.192C133.361 103.192 132.721 102.995 132.187 102.6C131.665 102.195 131.403 101.613 131.403 100.856C131.403 99.9493 131.739 99.2933 132.411 98.888C133.094 98.472 133.915 98.264 134.875 98.264C135.579 98.264 136.289 98.344 137.003 98.504V98.232C137.003 97.6453 136.811 97.1813 136.427 96.84C136.043 96.488 135.505 96.312 134.811 96.312C133.841 96.312 132.907 96.504 132.011 96.888V95.64C133.014 95.2987 133.99 95.128 134.939 95.128C135.985 95.128 136.801 95.4107 137.387 95.976C137.985 96.5307 138.283 97.336 138.283 98.392V101.4ZM132.715 100.792C132.715 101.219 132.875 101.544 133.195 101.768C133.526 101.981 133.921 102.088 134.379 102.088C135.435 102.088 136.31 101.715 137.003 100.968V99.56C136.278 99.4107 135.627 99.336 135.051 99.336C134.401 99.336 133.846 99.4533 133.387 99.688C132.939 99.912 132.715 100.28 132.715 100.792Z" fill="#CC9933"/>
</svg>
