<svg width="202" height="238" viewBox="0 0 202 238" fill="none" xmlns="http://www.w3.org/2000/svg">
<rect x="0.5" y="0.5" width="201" height="237" rx="4.5" stroke="#999999" stroke-dasharray="10 5"/>
<path d="M52.568 25.8C52.184 30.744 51.864 35.816 49.832 35.816C49.48 35.816 49.288 35.784 49.064 35.704V36.984C49.416 37.112 49.752 37.16 50.056 37.16C52.984 37.144 53.4 32.184 53.848 27.08H58.12V37H59.464V25.8H52.568ZM63.2095 37L67.9135 31.384V37H69.1935V29.32H68.1055L63.4015 34.936V29.32H62.1215V37H63.2095ZM77.559 37V29.32H76.279V33.208C75.687 33.448 75.143 33.544 74.375 33.544C73.095 33.544 72.311 33.176 72.311 31.88V29.32H71.031V31.976C71.031 33.864 72.231 34.728 73.991 34.728C74.951 34.728 75.575 34.6 76.279 34.328V37H77.559ZM81.214 37V33.752H85.662V37H86.942V29.32H85.662V32.568H81.214V29.32H79.934V37H81.214ZM92.957 37C94.829 37 95.933 35.928 95.933 34.504C95.933 33.08 94.829 32.008 92.957 32.008H90.589V29.32H89.309V37H92.957ZM90.589 33.16H92.797C93.917 33.16 94.637 33.592 94.637 34.504C94.637 35.416 93.917 35.848 92.797 35.848H90.589V33.16ZM98.701 37V29.32H97.421V37H98.701ZM106.851 27.464V26.312C106.051 26.84 105.395 27.016 104.611 27.016C103.827 27.016 103.171 26.84 102.371 26.312V27.464C103.091 27.976 103.843 28.136 104.611 28.136C105.379 28.136 106.131 27.976 106.851 27.464ZM102.163 37L106.867 31.384V37H108.147V29.32H107.059L102.355 34.936V29.32H101.075V37H102.163ZM115.777 37V33.704H117.281L120.097 37H121.601L118.337 33.144L121.249 29.32H119.761L117.329 32.52H115.777V29.32H114.497V37H115.777ZM129.049 35.4V32.392C129.049 30.248 127.753 29.128 125.705 29.128C124.441 29.128 123.385 29.432 122.777 29.64V30.888C123.449 30.6 124.393 30.312 125.577 30.312C126.985 30.312 127.769 31.08 127.769 32.232V32.504C127.129 32.36 126.313 32.264 125.641 32.264C123.993 32.264 122.169 32.872 122.169 34.856C122.169 36.472 123.513 37.192 124.873 37.192C126.121 37.192 127.097 36.808 127.865 36.168C128.089 36.84 128.649 37.096 129.273 37.096C129.593 37.096 129.929 37.032 130.233 36.92V35.88C130.041 35.944 129.833 35.992 129.641 35.992C129.305 35.992 129.049 35.864 129.049 35.4ZM123.481 34.792C123.481 33.672 124.697 33.336 125.817 33.336C126.441 33.336 127.225 33.448 127.769 33.56V34.968C127.097 35.688 126.121 36.088 125.145 36.088C124.297 36.088 123.481 35.688 123.481 34.792ZM139.11 33.384C139.11 31.096 137.334 29.64 135.334 29.64C134.134 29.64 133.046 30.232 132.502 31.08C132.822 30.104 133.254 29.064 134.326 28.424C136.086 27.4 137.318 27.736 138.422 26.952V25.608C137.302 26.696 135.782 26.12 133.574 27.48C132.198 28.344 131.206 30.12 131.206 32.696C131.206 35.608 132.87 37.192 135.19 37.192C137.51 37.192 139.11 35.784 139.11 33.384ZM132.486 33.416C132.486 32.12 133.558 30.856 135.158 30.856C136.838 30.856 137.83 31.96 137.83 33.416C137.83 34.872 136.838 35.976 135.158 35.976C133.542 35.976 132.486 34.872 132.486 33.416ZM142.053 37L146.757 31.384V37H148.037V29.32H146.949L142.245 34.936V29.32H140.965V37H142.053ZM151.683 37V33.752H156.131V37H157.411V29.32H156.131V32.568H151.683V29.32H150.403V37H151.683ZM159.25 33.16C159.25 35.896 161.234 37.192 163.506 37.192C164.514 37.192 165.522 37 166.226 36.632V35.384C165.57 35.752 164.642 36.008 163.698 36.008C162.146 36.008 160.69 35.336 160.53 33.72H166.642C167.122 31.544 166.034 29.128 163.074 29.128C161.25 29.128 159.25 30.472 159.25 33.16ZM165.506 32.6H160.53C160.626 31.096 161.842 30.312 163.154 30.312C165.106 30.312 165.618 31.784 165.506 32.6ZM171.556 37V30.504H174.372V29.32H167.444V30.504H170.276V37H171.556Z" fill="#CC9933"/>
<path d="M31.59 27.41L35.17 31H21V33H35.17L31.58 36.59L33 38L39 32L33 26L31.59 27.41ZM40 26V38H42V26H40Z" fill="#CC9933"/>
<path d="M52.568 83.8H59.464V95H58.12V85.08H53.848C53.5813 88.152 53.3093 90.2853 53.032 91.48C52.5093 93.688 51.656 94.904 50.472 95.128C50.344 95.1493 50.2053 95.16 50.056 95.16C49.7147 95.16 49.384 95.1013 49.064 94.984V93.704C49.2773 93.7787 49.5333 93.816 49.832 93.816C50.2053 93.816 50.536 93.6347 50.824 93.272C51.112 92.9093 51.3413 92.44 51.512 91.864C51.6933 91.2773 51.848 90.5627 51.976 89.72C52.1147 88.8667 52.2213 88.008 52.296 87.144C52.3813 86.28 52.4613 85.3307 52.536 84.296C52.536 84.2213 52.536 84.168 52.536 84.136C52.5467 84.0933 52.552 84.04 52.552 83.976C52.5627 83.912 52.568 83.8533 52.568 83.8ZM63.2095 95H62.1215V87.32H63.4015V92.936L68.1055 87.32H69.1935V95H67.9135V89.384L63.2095 95ZM77.559 95H76.279V92.328C75.5857 92.5947 74.823 92.728 73.991 92.728C73.0737 92.728 72.3483 92.4987 71.815 92.04C71.2923 91.5813 71.031 90.8933 71.031 89.976V87.32H72.311V89.88C72.311 90.4987 72.4817 90.9307 72.823 91.176C73.175 91.4213 73.6923 91.544 74.375 91.544C75.0897 91.544 75.7243 91.432 76.279 91.208V87.32H77.559V95ZM81.214 95H79.934V87.32H81.214V90.568H85.662V87.32H86.942V95H85.662V91.752H81.214V95ZM92.957 95H89.309V87.32H90.589V90.008H92.957C93.8743 90.008 94.5997 90.2427 95.133 90.712C95.6663 91.1813 95.933 91.7787 95.933 92.504C95.933 93.2293 95.6663 93.8267 95.133 94.296C94.5997 94.7653 93.8743 95 92.957 95ZM90.589 91.16V93.848H92.797C93.373 93.848 93.821 93.736 94.141 93.512C94.4717 93.288 94.637 92.952 94.637 92.504C94.637 92.056 94.4717 91.72 94.141 91.496C93.821 91.272 93.373 91.16 92.797 91.16H90.589ZM98.701 95H97.421V87.32H98.701V95ZM106.851 85.464C106.221 85.912 105.475 86.136 104.611 86.136C103.747 86.136 103 85.912 102.371 85.464V84.312C103.085 84.7813 103.832 85.016 104.611 85.016C105.389 85.016 106.136 84.7813 106.851 84.312V85.464ZM102.163 95H101.075V87.32H102.355V92.936L107.059 87.32H108.147V95H106.867V89.384L102.163 95ZM115.777 95H114.497V87.32H115.777V90.52H117.329L119.761 87.32H121.249L118.337 91.144L121.601 95H120.097L117.281 91.704H115.777V95ZM129.049 93.4C129.049 93.7947 129.246 93.992 129.641 93.992C129.812 93.992 130.009 93.9547 130.233 93.88V94.92C129.913 95.0373 129.593 95.096 129.273 95.096C128.537 95.096 128.068 94.7867 127.865 94.168C127.044 94.8507 126.046 95.192 124.873 95.192C124.126 95.192 123.486 94.9947 122.953 94.6C122.43 94.1947 122.169 93.6133 122.169 92.856C122.169 91.9493 122.505 91.2933 123.177 90.888C123.86 90.472 124.681 90.264 125.641 90.264C126.345 90.264 127.054 90.344 127.769 90.504V90.232C127.769 89.6453 127.577 89.1813 127.193 88.84C126.809 88.488 126.27 88.312 125.577 88.312C124.606 88.312 123.673 88.504 122.777 88.888V87.64C123.78 87.2987 124.756 87.128 125.705 87.128C126.75 87.128 127.566 87.4107 128.153 87.976C128.75 88.5307 129.049 89.336 129.049 90.392V93.4ZM123.481 92.792C123.481 93.2187 123.641 93.544 123.961 93.768C124.292 93.9813 124.686 94.088 125.145 94.088C126.201 94.088 127.076 93.7147 127.769 92.968V91.56C127.044 91.4107 126.393 91.336 125.817 91.336C125.166 91.336 124.612 91.4533 124.153 91.688C123.705 91.912 123.481 92.28 123.481 92.792ZM139.11 91.384C139.11 92.568 138.747 93.5013 138.022 94.184C137.307 94.856 136.363 95.192 135.19 95.192C133.995 95.192 133.03 94.7973 132.294 94.008C131.569 93.2187 131.206 92.1147 131.206 90.696C131.206 89.4587 131.419 88.392 131.846 87.496C132.273 86.6 132.849 85.928 133.574 85.48C134.065 85.1813 134.571 84.9467 135.094 84.776C135.627 84.5947 136.065 84.4827 136.406 84.44C136.758 84.3973 137.121 84.312 137.494 84.184C137.867 84.0453 138.177 83.8533 138.422 83.608V84.952C138.123 85.1653 137.755 85.3253 137.318 85.432C136.881 85.528 136.395 85.6453 135.862 85.784C135.329 85.9227 134.817 86.136 134.326 86.424C133.846 86.712 133.473 87.0747 133.206 87.512C132.939 87.9493 132.705 88.472 132.502 89.08C132.779 88.6533 133.174 88.3067 133.686 88.04C134.198 87.7733 134.747 87.64 135.334 87.64C136.369 87.64 137.254 87.9867 137.99 88.68C138.737 89.3733 139.11 90.2747 139.11 91.384ZM132.486 91.416C132.486 92.152 132.731 92.7653 133.222 93.256C133.713 93.736 134.358 93.976 135.158 93.976C135.979 93.976 136.63 93.736 137.11 93.256C137.59 92.776 137.83 92.1627 137.83 91.416C137.83 90.6693 137.59 90.056 137.11 89.576C136.63 89.096 135.979 88.856 135.158 88.856C134.39 88.856 133.75 89.1173 133.238 89.64C132.737 90.152 132.486 90.744 132.486 91.416ZM142.053 95H140.965V87.32H142.245V92.936L146.949 87.32H148.037V95H146.757V89.384L142.053 95ZM151.683 95H150.403V87.32H151.683V90.568H156.131V87.32H157.411V95H156.131V91.752H151.683V95ZM159.25 91.16C159.25 89.9013 159.634 88.9147 160.402 88.2C161.18 87.4853 162.071 87.128 163.074 87.128C164.012 87.128 164.786 87.3627 165.394 87.832C166.012 88.3013 166.418 88.8827 166.61 89.576C166.802 90.2587 166.812 90.9733 166.642 91.72H160.53C160.604 92.4773 160.94 93.048 161.538 93.432C162.135 93.816 162.855 94.008 163.698 94.008C164.636 94.008 165.479 93.8 166.226 93.384V94.632C165.511 95.0053 164.604 95.192 163.506 95.192C162.29 95.192 161.276 94.8453 160.466 94.152C159.655 93.4587 159.25 92.4613 159.25 91.16ZM165.506 90.6C165.538 90.376 165.522 90.1413 165.458 89.896C165.394 89.6507 165.276 89.4053 165.106 89.16C164.946 88.9147 164.695 88.712 164.354 88.552C164.012 88.392 163.612 88.312 163.154 88.312C162.46 88.312 161.858 88.5147 161.346 88.92C160.844 89.3253 160.572 89.8853 160.53 90.6H165.506ZM171.556 95H170.276V88.504H167.444V87.32H174.372V88.504H171.556V95Z" fill="#F0BF5F"/>
<path d="M31.59 85.41L35.17 89H21V91H35.17L31.58 94.59L33 96L39 90L33 84L31.59 85.41ZM40 84V96H42V84H40Z" fill="#F0BF5F"/>
<rect x="20.5" y="136.5" width="164" height="33" stroke="#CC9933"/>
<path d="M36.59 148.41L40.17 152H26V154H40.17L36.58 157.59L38 159L44 153L38 147L36.59 148.41ZM45 147V159H47V147H45Z" fill="#CC9933"/>
<path d="M57.568 145.8H64.464V157H63.12V147.08H58.848C58.5813 150.152 58.3093 152.285 58.032 153.48C57.5093 155.688 56.656 156.904 55.472 157.128C55.344 157.149 55.2053 157.16 55.056 157.16C54.7147 157.16 54.384 157.101 54.064 156.984V155.704C54.2773 155.779 54.5333 155.816 54.832 155.816C55.2053 155.816 55.536 155.635 55.824 155.272C56.112 154.909 56.3413 154.44 56.512 153.864C56.6933 153.277 56.848 152.563 56.976 151.72C57.1147 150.867 57.2213 150.008 57.296 149.144C57.3813 148.28 57.4613 147.331 57.536 146.296C57.536 146.221 57.536 146.168 57.536 146.136C57.5467 146.093 57.552 146.04 57.552 145.976C57.5627 145.912 57.568 145.853 57.568 145.8ZM68.2095 157H67.1215V149.32H68.4015V154.936L73.1055 149.32H74.1935V157H72.9135V151.384L68.2095 157ZM82.559 157H81.279V154.328C80.5857 154.595 79.823 154.728 78.991 154.728C78.0737 154.728 77.3483 154.499 76.815 154.04C76.2923 153.581 76.031 152.893 76.031 151.976V149.32H77.311V151.88C77.311 152.499 77.4817 152.931 77.823 153.176C78.175 153.421 78.6923 153.544 79.375 153.544C80.0897 153.544 80.7243 153.432 81.279 153.208V149.32H82.559V157ZM86.214 157H84.934V149.32H86.214V152.568H90.662V149.32H91.942V157H90.662V153.752H86.214V157ZM97.957 157H94.309V149.32H95.589V152.008H97.957C98.8743 152.008 99.5997 152.243 100.133 152.712C100.666 153.181 100.933 153.779 100.933 154.504C100.933 155.229 100.666 155.827 100.133 156.296C99.5997 156.765 98.8743 157 97.957 157ZM95.589 153.16V155.848H97.797C98.373 155.848 98.821 155.736 99.141 155.512C99.4717 155.288 99.637 154.952 99.637 154.504C99.637 154.056 99.4717 153.72 99.141 153.496C98.821 153.272 98.373 153.16 97.797 153.16H95.589ZM103.701 157H102.421V149.32H103.701V157ZM111.851 147.464C111.221 147.912 110.475 148.136 109.611 148.136C108.747 148.136 108 147.912 107.371 147.464V146.312C108.085 146.781 108.832 147.016 109.611 147.016C110.389 147.016 111.136 146.781 111.851 146.312V147.464ZM107.163 157H106.075V149.32H107.355V154.936L112.059 149.32H113.147V157H111.867V151.384L107.163 157ZM120.777 157H119.497V149.32H120.777V152.52H122.329L124.761 149.32H126.249L123.337 153.144L126.601 157H125.097L122.281 153.704H120.777V157ZM134.049 155.4C134.049 155.795 134.246 155.992 134.641 155.992C134.812 155.992 135.009 155.955 135.233 155.88V156.92C134.913 157.037 134.593 157.096 134.273 157.096C133.537 157.096 133.068 156.787 132.865 156.168C132.044 156.851 131.046 157.192 129.873 157.192C129.126 157.192 128.486 156.995 127.953 156.6C127.43 156.195 127.169 155.613 127.169 154.856C127.169 153.949 127.505 153.293 128.177 152.888C128.86 152.472 129.681 152.264 130.641 152.264C131.345 152.264 132.054 152.344 132.769 152.504V152.232C132.769 151.645 132.577 151.181 132.193 150.84C131.809 150.488 131.27 150.312 130.577 150.312C129.606 150.312 128.673 150.504 127.777 150.888V149.64C128.78 149.299 129.756 149.128 130.705 149.128C131.75 149.128 132.566 149.411 133.153 149.976C133.75 150.531 134.049 151.336 134.049 152.392V155.4ZM128.481 154.792C128.481 155.219 128.641 155.544 128.961 155.768C129.292 155.981 129.686 156.088 130.145 156.088C131.201 156.088 132.076 155.715 132.769 154.968V153.56C132.044 153.411 131.393 153.336 130.817 153.336C130.166 153.336 129.612 153.453 129.153 153.688C128.705 153.912 128.481 154.28 128.481 154.792ZM144.11 153.384C144.11 154.568 143.747 155.501 143.022 156.184C142.307 156.856 141.363 157.192 140.19 157.192C138.995 157.192 138.03 156.797 137.294 156.008C136.569 155.219 136.206 154.115 136.206 152.696C136.206 151.459 136.419 150.392 136.846 149.496C137.273 148.6 137.849 147.928 138.574 147.48C139.065 147.181 139.571 146.947 140.094 146.776C140.627 146.595 141.065 146.483 141.406 146.44C141.758 146.397 142.121 146.312 142.494 146.184C142.867 146.045 143.177 145.853 143.422 145.608V146.952C143.123 147.165 142.755 147.325 142.318 147.432C141.881 147.528 141.395 147.645 140.862 147.784C140.329 147.923 139.817 148.136 139.326 148.424C138.846 148.712 138.473 149.075 138.206 149.512C137.939 149.949 137.705 150.472 137.502 151.08C137.779 150.653 138.174 150.307 138.686 150.04C139.198 149.773 139.747 149.64 140.334 149.64C141.369 149.64 142.254 149.987 142.99 150.68C143.737 151.373 144.11 152.275 144.11 153.384ZM137.486 153.416C137.486 154.152 137.731 154.765 138.222 155.256C138.713 155.736 139.358 155.976 140.158 155.976C140.979 155.976 141.63 155.736 142.11 155.256C142.59 154.776 142.83 154.163 142.83 153.416C142.83 152.669 142.59 152.056 142.11 151.576C141.63 151.096 140.979 150.856 140.158 150.856C139.39 150.856 138.75 151.117 138.238 151.64C137.737 152.152 137.486 152.744 137.486 153.416ZM147.053 157H145.965V149.32H147.245V154.936L151.949 149.32H153.037V157H151.757V151.384L147.053 157ZM156.683 157H155.403V149.32H156.683V152.568H161.131V149.32H162.411V157H161.131V153.752H156.683V157ZM164.25 153.16C164.25 151.901 164.634 150.915 165.402 150.2C166.18 149.485 167.071 149.128 168.074 149.128C169.012 149.128 169.786 149.363 170.394 149.832C171.012 150.301 171.418 150.883 171.61 151.576C171.802 152.259 171.812 152.973 171.642 153.72H165.53C165.604 154.477 165.94 155.048 166.538 155.432C167.135 155.816 167.855 156.008 168.698 156.008C169.636 156.008 170.479 155.8 171.226 155.384V156.632C170.511 157.005 169.604 157.192 168.506 157.192C167.29 157.192 166.276 156.845 165.466 156.152C164.655 155.459 164.25 154.461 164.25 153.16ZM170.506 152.6C170.538 152.376 170.522 152.141 170.458 151.896C170.394 151.651 170.276 151.405 170.106 151.16C169.946 150.915 169.695 150.712 169.354 150.552C169.012 150.392 168.612 150.312 168.154 150.312C167.46 150.312 166.858 150.515 166.346 150.92C165.844 151.325 165.572 151.885 165.53 152.6H170.506ZM176.556 157H175.276V150.504H172.444V149.32H179.372V150.504H176.556V157Z" fill="#CC9933"/>
<path d="M52.568 199.8C52.184 204.744 51.864 209.816 49.832 209.816C49.48 209.816 49.288 209.784 49.064 209.704V210.984C49.416 211.112 49.752 211.16 50.056 211.16C52.984 211.144 53.4 206.184 53.848 201.08H58.12V211H59.464V199.8H52.568ZM63.2095 211L67.9135 205.384V211H69.1935V203.32H68.1055L63.4015 208.936V203.32H62.1215V211H63.2095ZM77.559 211V203.32H76.279V207.208C75.687 207.448 75.143 207.544 74.375 207.544C73.095 207.544 72.311 207.176 72.311 205.88V203.32H71.031V205.976C71.031 207.864 72.231 208.728 73.991 208.728C74.951 208.728 75.575 208.6 76.279 208.328V211H77.559ZM81.214 211V207.752H85.662V211H86.942V203.32H85.662V206.568H81.214V203.32H79.934V211H81.214ZM92.957 211C94.829 211 95.933 209.928 95.933 208.504C95.933 207.08 94.829 206.008 92.957 206.008H90.589V203.32H89.309V211H92.957ZM90.589 207.16H92.797C93.917 207.16 94.637 207.592 94.637 208.504C94.637 209.416 93.917 209.848 92.797 209.848H90.589V207.16ZM98.701 211V203.32H97.421V211H98.701ZM106.851 201.464V200.312C106.051 200.84 105.395 201.016 104.611 201.016C103.827 201.016 103.171 200.84 102.371 200.312V201.464C103.091 201.976 103.843 202.136 104.611 202.136C105.379 202.136 106.131 201.976 106.851 201.464ZM102.163 211L106.867 205.384V211H108.147V203.32H107.059L102.355 208.936V203.32H101.075V211H102.163ZM115.777 211V207.704H117.281L120.097 211H121.601L118.337 207.144L121.249 203.32H119.761L117.329 206.52H115.777V203.32H114.497V211H115.777ZM129.049 209.4V206.392C129.049 204.248 127.753 203.128 125.705 203.128C124.441 203.128 123.385 203.432 122.777 203.64V204.888C123.449 204.6 124.393 204.312 125.577 204.312C126.985 204.312 127.769 205.08 127.769 206.232V206.504C127.129 206.36 126.313 206.264 125.641 206.264C123.993 206.264 122.169 206.872 122.169 208.856C122.169 210.472 123.513 211.192 124.873 211.192C126.121 211.192 127.097 210.808 127.865 210.168C128.089 210.84 128.649 211.096 129.273 211.096C129.593 211.096 129.929 211.032 130.233 210.92V209.88C130.041 209.944 129.833 209.992 129.641 209.992C129.305 209.992 129.049 209.864 129.049 209.4ZM123.481 208.792C123.481 207.672 124.697 207.336 125.817 207.336C126.441 207.336 127.225 207.448 127.769 207.56V208.968C127.097 209.688 126.121 210.088 125.145 210.088C124.297 210.088 123.481 209.688 123.481 208.792ZM139.11 207.384C139.11 205.096 137.334 203.64 135.334 203.64C134.134 203.64 133.046 204.232 132.502 205.08C132.822 204.104 133.254 203.064 134.326 202.424C136.086 201.4 137.318 201.736 138.422 200.952V199.608C137.302 200.696 135.782 200.12 133.574 201.48C132.198 202.344 131.206 204.12 131.206 206.696C131.206 209.608 132.87 211.192 135.19 211.192C137.51 211.192 139.11 209.784 139.11 207.384ZM132.486 207.416C132.486 206.12 133.558 204.856 135.158 204.856C136.838 204.856 137.83 205.96 137.83 207.416C137.83 208.872 136.838 209.976 135.158 209.976C133.542 209.976 132.486 208.872 132.486 207.416ZM142.053 211L146.757 205.384V211H148.037V203.32H146.949L142.245 208.936V203.32H140.965V211H142.053ZM151.683 211V207.752H156.131V211H157.411V203.32H156.131V206.568H151.683V203.32H150.403V211H151.683ZM159.25 207.16C159.25 209.896 161.234 211.192 163.506 211.192C164.514 211.192 165.522 211 166.226 210.632V209.384C165.57 209.752 164.642 210.008 163.698 210.008C162.146 210.008 160.69 209.336 160.53 207.72H166.642C167.122 205.544 166.034 203.128 163.074 203.128C161.25 203.128 159.25 204.472 159.25 207.16ZM165.506 206.6H160.53C160.626 205.096 161.842 204.312 163.154 204.312C165.106 204.312 165.618 205.784 165.506 206.6ZM171.556 211V204.504H174.372V203.32H167.444V204.504H170.276V211H171.556Z" fill="#A47312"/>
<path d="M31.59 201.41L35.17 205H21V207H35.17L31.58 210.59L33 212L39 206L33 200L31.59 201.41ZM40 200V212H42V200H40Z" fill="#CC9933"/>
</svg>
